<svg xmlns="http://www.w3.org/2000/svg" width="488.25" viewBox="0 0 488.25 65.25" height="65.25" version="1.0"><defs><clipPath id="a"><path d="M 2.402344 0 L 485.105469 0 L 485.105469 64.507812 L 2.402344 64.507812 Z M 2.402344 0"/></clipPath><clipPath id="b"><path d="M 95.703125 0 L 145.382812 0 L 145.382812 57.835938 L 95.703125 57.835938 Z M 95.703125 0"/></clipPath></defs><g clip-path="url(#a)" fill="#FFF"><path d="M 2.402344 0 L 485.847656 0 L 485.847656 71.921875 L 2.402344 71.921875 Z M 2.402344 0"/><path d="M 2.402344 0 L 485.105469 0 L 485.105469 64.507812 L 2.402344 64.507812 Z M 2.402344 0"/><path d="M 2.402344 0 L 485.105469 0 L 485.105469 64.507812 L 2.402344 64.507812 Z M 2.402344 0"/></g><g><g><g><path d="M 36.1875 -49.140625 L 48.15625 -49.140625 L 48.15625 0 L 36.1875 0 L 36.1875 -20.375 L 17.21875 -20.375 L 17.21875 0 L 5.25 0 L 5.25 -49.140625 L 17.21875 -49.140625 L 17.21875 -29.46875 L 36.1875 -29.46875 Z M 36.1875 -49.140625" transform="translate(155.949 52.779)"/></g></g></g><g><g><g><path d="M 2.734375 -0.703125 L 2.734375 -9.59375 C 3.992188 -10.707031 5.765625 -12.242188 8.046875 -14.203125 C 10.335938 -16.171875 12.113281 -17.703125 13.375 -18.796875 C 14.632812 -19.890625 16.101562 -21.265625 17.78125 -22.921875 C 19.457031 -24.578125 20.71875 -25.988281 21.5625 -27.15625 C 23.75 -30.1875 24.84375 -32.820312 24.84375 -35.0625 C 24.84375 -39.03125 23.09375 -41.015625 19.59375 -41.015625 C 17.914062 -41.015625 16.585938 -40.421875 15.609375 -39.234375 C 14.628906 -38.046875 14.140625 -36.332031 14.140625 -34.09375 L 2.59375 -34.09375 C 2.59375 -39.6875 4.210938 -43.914062 7.453125 -46.78125 C 10.691406 -49.65625 14.945312 -51.09375 20.21875 -51.09375 C 25.5 -51.09375 29.609375 -49.585938 32.546875 -46.578125 C 35.484375 -43.566406 36.953125 -39.941406 36.953125 -35.703125 C 36.953125 -32.484375 36.253906 -29.660156 34.859375 -27.234375 C 34.015625 -25.828125 33.289062 -24.632812 32.6875 -23.65625 C 32.082031 -22.675781 31.078125 -21.460938 29.671875 -20.015625 C 28.273438 -18.566406 27.25 -17.515625 26.59375 -16.859375 C 25.945312 -16.210938 24.75 -15.09375 23 -13.5 C 21.25 -11.914062 20.140625 -10.894531 19.671875 -10.4375 L 37.875 -10.4375 L 37.875 -0.703125 Z M 2.734375 -0.703125" transform="translate(207.596 52.779)"/></g></g></g><g><g><g><path d="M 17.21875 -19.109375 L 17.21875 0 L 5.25 0 L 5.25 -49.140625 L 24.640625 -49.140625 C 30.335938 -49.140625 34.769531 -47.664062 37.9375 -44.71875 C 41.113281 -41.78125 42.703125 -38.238281 42.703125 -34.09375 C 42.703125 -31.238281 41.835938 -28.457031 40.109375 -25.75 C 38.378906 -23.050781 35.554688 -21.140625 31.640625 -20.015625 L 43.6875 0 L 29.6875 0 L 18.625 -19.109375 Z M 17.21875 -40.046875 L 17.21875 -28.203125 L 24.640625 -28.203125 C 26.460938 -28.203125 27.894531 -28.738281 28.9375 -29.8125 C 29.988281 -30.894531 30.515625 -32.3125 30.515625 -34.0625 C 30.515625 -35.8125 29.976562 -37.242188 28.90625 -38.359375 C 27.832031 -39.484375 26.410156 -40.046875 24.640625 -40.046875 Z M 17.21875 -40.046875" transform="translate(245.806 52.779)"/></g></g></g><g><g><g><path d="M 35 -49.28125 L 35 -40.1875 L 17.21875 -40.1875 L 17.21875 -29.609375 L 32.90625 -29.609375 L 32.90625 -20.515625 L 17.21875 -20.515625 L 17.21875 -9.09375 L 35 -9.09375 L 35 0 L 5.25 0 L 5.25 -49.28125 Z M 35 -49.28125" transform="translate(290.804 52.779)"/></g></g></g><g><g><g><path d="M 21.90625 -40.390625 C 20.414062 -40.390625 19.191406 -39.992188 18.234375 -39.203125 C 17.273438 -38.410156 16.796875 -37.265625 16.796875 -35.765625 C 16.796875 -34.273438 17.238281 -33.070312 18.125 -32.15625 C 19.007812 -31.25 20.164062 -30.550781 21.59375 -30.0625 C 23.019531 -29.570312 24.609375 -29.101562 26.359375 -28.65625 C 28.109375 -28.21875 29.84375 -27.679688 31.5625 -27.046875 C 33.289062 -26.421875 34.867188 -25.640625 36.296875 -24.703125 C 37.722656 -23.773438 38.878906 -22.457031 39.765625 -20.75 C 40.648438 -19.050781 41.09375 -17.007812 41.09375 -14.625 C 41.09375 -10.476562 39.398438 -6.921875 36.015625 -3.953125 C 32.628906 -0.992188 28.171875 0.484375 22.640625 0.484375 C 17.109375 0.484375 12.648438 -0.84375 9.265625 -3.5 C 5.890625 -6.15625 4.203125 -9.9375 4.203125 -14.84375 L 16.9375 -14.84375 C 17.269531 -10.914062 19.273438 -8.953125 22.953125 -8.953125 C 24.679688 -8.953125 26.035156 -9.40625 27.015625 -10.3125 C 27.992188 -11.226562 28.484375 -12.382812 28.484375 -13.78125 C 28.484375 -15.1875 28.039062 -16.332031 27.15625 -17.21875 C 26.269531 -18.101562 25.113281 -18.800781 23.6875 -19.3125 C 22.269531 -19.832031 20.6875 -20.3125 18.9375 -20.75 C 17.1875 -21.195312 15.445312 -21.742188 13.71875 -22.390625 C 11.988281 -23.046875 10.410156 -23.828125 8.984375 -24.734375 C 7.566406 -25.648438 6.414062 -26.957031 5.53125 -28.65625 C 4.644531 -30.363281 4.203125 -32.382812 4.203125 -34.71875 C 4.203125 -39.289062 5.90625 -42.953125 9.3125 -45.703125 C 12.71875 -48.460938 17.066406 -49.84375 22.359375 -49.84375 C 27.660156 -49.84375 31.941406 -48.640625 35.203125 -46.234375 C 38.472656 -43.828125 40.175781 -40.035156 40.3125 -34.859375 L 27.296875 -34.859375 C 27.109375 -36.628906 26.535156 -37.992188 25.578125 -38.953125 C 24.628906 -39.910156 23.40625 -40.390625 21.90625 -40.390625 Z M 21.90625 -40.390625" transform="translate(329.084 52.779)"/></g></g></g><g fill="#1D3ED3"><g><g><path d="M 36.46875 0 L 33.734375 -8.265625 L 16.09375 -8.265625 L 13.375 0 L 0.625 0 L 17.703125 -49.28125 L 32.265625 -49.28125 L 49.28125 0 Z M 19.109375 -17.359375 L 30.734375 -17.359375 L 24.921875 -34.859375 Z M 19.109375 -17.359375" transform="translate(372.596 52.779)"/></g></g></g><g fill="#1D3ED3"><g><g><path d="M 5.25 0 L 5.25 -49.140625 L 17.21875 -49.140625 L 17.21875 0 Z M 5.25 0" transform="translate(420.744 52.779)"/></g></g></g><path fill="#1D3ED3" d="M 112.496094 37.179688 C 112.539062 37.074219 112.613281 37.019531 112.726562 37.011719 C 113.035156 36.984375 113.332031 36.902344 113.609375 36.757812 C 113.886719 36.617188 114.128906 36.429688 114.332031 36.195312 C 114.535156 35.957031 114.691406 35.695312 114.789062 35.398438 C 114.890625 35.105469 114.933594 34.800781 114.914062 34.488281 C 114.894531 34.179688 114.820312 33.882812 114.6875 33.601562 C 114.554688 33.320312 114.371094 33.074219 114.140625 32.863281 C 113.910156 32.652344 113.652344 32.492188 113.359375 32.382812 C 113.066406 32.273438 112.761719 32.226562 112.453125 32.234375 C 112.140625 32.242188 111.839844 32.308594 111.554688 32.4375 C 111.269531 32.5625 111.019531 32.734375 110.800781 32.960938 C 110.585938 33.183594 110.417969 33.441406 110.300781 33.726562 C 110.183594 34.015625 110.125 34.316406 110.125 34.628906 C 110.125 35.207031 110.3125 35.71875 110.6875 36.15625 C 110.757812 36.246094 110.773438 36.339844 110.730469 36.445312 L 107.976562 43.050781 C 107.941406 43.136719 107.941406 43.226562 107.972656 43.316406 C 108.007812 43.40625 108.066406 43.472656 108.152344 43.515625 L 109.984375 44.449219 C 110.078125 44.503906 110.125 44.585938 110.121094 44.699219 C 110.125 45.015625 110.191406 45.320312 110.316406 45.609375 C 110.441406 45.902344 110.617188 46.15625 110.84375 46.378906 C 111.070312 46.601562 111.332031 46.769531 111.625 46.886719 C 111.921875 47.007812 112.226562 47.066406 112.542969 47.0625 C 112.859375 47.058594 113.164062 46.996094 113.457031 46.871094 C 113.75 46.746094 114.007812 46.574219 114.230469 46.347656 C 114.453125 46.121094 114.625 45.863281 114.746094 45.570312 C 114.863281 45.277344 114.921875 44.96875 114.921875 44.652344 C 114.921875 44.335938 114.859375 44.03125 114.734375 43.738281 C 114.613281 43.445312 114.441406 43.1875 114.214844 42.964844 C 113.988281 42.742188 113.730469 42.570312 113.4375 42.449219 C 113.144531 42.328125 112.839844 42.265625 112.523438 42.265625 C 112.011719 42.269531 111.554688 42.417969 111.144531 42.714844 C 111.050781 42.785156 110.953125 42.796875 110.847656 42.746094 L 110.449219 42.542969 C 110.347656 42.492188 110.316406 42.414062 110.359375 42.308594 Z M 112.523438 33.664062 C 112.789062 33.664062 113.015625 33.757812 113.203125 33.945312 C 113.394531 34.136719 113.488281 34.363281 113.488281 34.628906 C 113.488281 34.894531 113.394531 35.121094 113.203125 35.3125 C 113.015625 35.5 112.789062 35.59375 112.523438 35.59375 C 112.253906 35.59375 112.027344 35.5 111.839844 35.3125 C 111.648438 35.121094 111.554688 34.894531 111.554688 34.628906 C 111.554688 34.5 111.578125 34.378906 111.628906 34.257812 C 111.675781 34.140625 111.746094 34.035156 111.835938 33.945312 C 111.929688 33.855469 112.03125 33.785156 112.152344 33.738281 C 112.269531 33.6875 112.394531 33.664062 112.523438 33.664062 Z M 112.523438 43.683594 C 112.789062 43.683594 113.015625 43.777344 113.203125 43.96875 C 113.394531 44.15625 113.488281 44.382812 113.488281 44.648438 C 113.488281 44.914062 113.394531 45.144531 113.203125 45.332031 C 113.015625 45.519531 112.789062 45.613281 112.523438 45.613281 C 112.253906 45.613281 112.027344 45.519531 111.839844 45.332031 C 111.648438 45.144531 111.554688 44.914062 111.554688 44.648438 C 111.558594 44.386719 111.652344 44.160156 111.84375 43.976562 C 112.03125 43.789062 112.257812 43.699219 112.523438 43.699219 Z M 112.523438 43.683594"/><path fill="#1D3ED3" d="M 115.097656 20.863281 C 115.09375 20.976562 115.039062 21.054688 114.9375 21.101562 C 114.773438 21.175781 114.621094 21.265625 114.480469 21.375 C 114.339844 21.480469 114.210938 21.601562 114.09375 21.738281 C 113.980469 21.875 113.878906 22.023438 113.796875 22.179688 C 113.714844 22.335938 113.652344 22.503906 113.605469 22.675781 C 113.5625 22.847656 113.535156 23.023438 113.527344 23.199219 C 113.523438 23.378906 113.535156 23.554688 113.566406 23.730469 C 113.601562 23.90625 113.652344 24.074219 113.722656 24.238281 C 113.792969 24.402344 113.882812 24.554688 113.984375 24.699219 C 114.089844 24.84375 114.210938 24.972656 114.34375 25.089844 C 114.476562 25.207031 114.621094 25.308594 114.777344 25.394531 C 114.9375 25.480469 115.097656 25.546875 115.269531 25.597656 C 115.441406 25.644531 115.617188 25.675781 115.796875 25.683594 C 115.972656 25.695312 116.148438 25.6875 116.324219 25.65625 C 116.5 25.628906 116.671875 25.578125 116.835938 25.511719 C 117.003906 25.445312 117.15625 25.359375 117.304688 25.257812 C 117.449219 25.15625 117.585938 25.039062 117.703125 24.910156 C 117.824219 24.777344 117.929688 24.636719 118.019531 24.480469 C 118.105469 24.324219 118.175781 24.164062 118.230469 23.992188 C 118.28125 23.824219 118.316406 23.648438 118.328125 23.472656 C 118.34375 23.292969 118.335938 23.117188 118.308594 22.941406 C 118.285156 22.765625 118.238281 22.59375 118.175781 22.425781 C 118.113281 22.261719 118.03125 22.105469 117.929688 21.957031 C 117.832031 21.808594 117.71875 21.671875 117.589844 21.550781 C 117.460938 21.425781 117.320312 21.320312 117.167969 21.226562 C 117.066406 21.171875 117.015625 21.089844 117.015625 20.976562 L 117.015625 15.070312 C 117.015625 14.957031 117.050781 14.859375 117.128906 14.773438 L 121.097656 10.605469 C 121.175781 10.527344 121.265625 10.503906 121.371094 10.535156 C 121.589844 10.601562 121.808594 10.636719 122.035156 10.636719 C 122.375 10.636719 122.699219 10.566406 123.011719 10.429688 C 123.324219 10.289062 123.59375 10.09375 123.820312 9.839844 C 124.046875 9.585938 124.214844 9.296875 124.320312 8.972656 C 124.421875 8.648438 124.457031 8.316406 124.421875 7.980469 C 124.382812 7.640625 124.277344 7.324219 124.105469 7.03125 C 123.933594 6.734375 123.710938 6.488281 123.433594 6.289062 C 123.15625 6.09375 122.851562 5.957031 122.515625 5.890625 C 122.183594 5.820312 121.847656 5.824219 121.515625 5.898438 C 121.183594 5.972656 120.878906 6.109375 120.605469 6.3125 C 120.332031 6.515625 120.109375 6.765625 119.941406 7.0625 C 119.777344 7.359375 119.675781 7.675781 119.644531 8.015625 C 119.613281 8.355469 119.652344 8.683594 119.761719 9.007812 C 119.800781 9.113281 119.78125 9.210938 119.703125 9.296875 L 115.332031 13.886719 C 115.175781 14.050781 115.097656 14.246094 115.097656 14.472656 Z M 122.035156 7.273438 C 122.300781 7.273438 122.527344 7.367188 122.71875 7.554688 C 122.90625 7.746094 123 7.972656 123 8.238281 C 123 8.503906 122.90625 8.734375 122.71875 8.921875 C 122.527344 9.109375 122.300781 9.203125 122.035156 9.203125 C 121.765625 9.203125 121.539062 9.109375 121.351562 8.921875 C 121.164062 8.734375 121.066406 8.503906 121.066406 8.238281 C 121.070312 7.972656 121.164062 7.746094 121.351562 7.558594 C 121.539062 7.371094 121.769531 7.273438 122.035156 7.273438 Z M 114.972656 23.277344 C 114.972656 23.011719 115.066406 22.78125 115.253906 22.59375 C 115.441406 22.402344 115.671875 22.308594 115.9375 22.308594 C 116.203125 22.308594 116.433594 22.402344 116.621094 22.589844 C 116.8125 22.777344 116.90625 23.003906 116.90625 23.273438 C 116.90625 23.539062 116.8125 23.765625 116.625 23.953125 C 116.433594 24.144531 116.207031 24.238281 115.941406 24.238281 C 115.8125 24.238281 115.6875 24.214844 115.570312 24.167969 C 115.449219 24.121094 115.34375 24.050781 115.253906 23.960938 C 115.160156 23.871094 115.089844 23.765625 115.039062 23.648438 C 114.992188 23.527344 114.964844 23.40625 114.964844 23.277344 Z M 114.972656 23.277344"/><g clip-path="url(#b)"><path fill="#1D3ED3" d="M 141.023438 21.78125 C 140.984375 21.675781 140.96875 21.566406 140.980469 21.453125 L 142.15625 10.898438 C 142.179688 10.675781 142.101562 10.492188 141.921875 10.355469 L 130.8125 1.910156 C 130.628906 1.773438 130.425781 1.691406 130.199219 1.671875 L 112.058594 0 C 111.832031 -0.0195312 111.625 0.0351562 111.441406 0.171875 L 97.433594 10.300781 C 97.253906 10.4375 97.160156 10.617188 97.160156 10.84375 L 97.160156 23.6875 C 97.160156 23.914062 97.195312 24.136719 97.265625 24.351562 L 100.652344 34.886719 C 100.691406 34.992188 100.691406 35.097656 100.652344 35.203125 L 98.199219 41.300781 C 98.15625 41.40625 98.078125 41.460938 97.96875 41.46875 C 97.65625 41.492188 97.359375 41.574219 97.078125 41.714844 C 96.800781 41.851562 96.558594 42.039062 96.351562 42.273438 C 96.144531 42.507812 95.988281 42.773438 95.886719 43.066406 C 95.785156 43.359375 95.738281 43.664062 95.753906 43.976562 C 95.769531 44.289062 95.84375 44.585938 95.976562 44.867188 C 96.109375 45.152344 96.289062 45.398438 96.519531 45.609375 C 96.746094 45.824219 97.007812 45.984375 97.300781 46.09375 C 97.59375 46.203125 97.894531 46.257812 98.207031 46.25 C 98.519531 46.242188 98.820312 46.175781 99.105469 46.050781 C 99.390625 45.925781 99.644531 45.75 99.863281 45.527344 C 100.082031 45.304688 100.25 45.050781 100.367188 44.761719 C 100.484375 44.472656 100.546875 44.171875 100.546875 43.859375 C 100.542969 43.289062 100.363281 42.785156 100 42.347656 C 99.929688 42.261719 99.914062 42.167969 99.953125 42.0625 L 102.613281 35.417969 C 102.699219 35.210938 102.707031 34.996094 102.632812 34.78125 L 99.113281 23.925781 C 99.078125 23.816406 99.0625 23.707031 99.0625 23.59375 L 99.0625 11.652344 C 99.0625 11.539062 99.105469 11.449219 99.199219 11.382812 L 112.140625 2.042969 C 112.234375 1.972656 112.339844 1.945312 112.457031 1.960938 L 129.648438 3.539062 C 129.761719 3.550781 129.863281 3.589844 129.953125 3.660156 L 140.035156 11.324219 C 140.125 11.390625 140.164062 11.480469 140.152344 11.59375 L 139.136719 20.71875 C 139.125 20.832031 139.0625 20.898438 138.949219 20.914062 L 130.335938 21.984375 C 130.222656 22 130.136719 21.960938 130.070312 21.871094 C 129.96875 21.726562 129.847656 21.59375 129.714844 21.476562 C 129.582031 21.359375 129.4375 21.257812 129.28125 21.171875 C 129.125 21.085938 128.960938 21.019531 128.789062 20.96875 C 128.617188 20.917969 128.445312 20.890625 128.265625 20.878906 C 128.085938 20.867188 127.910156 20.878906 127.734375 20.90625 C 127.558594 20.9375 127.390625 20.984375 127.222656 21.050781 C 127.058594 21.117188 126.902344 21.203125 126.757812 21.304688 C 126.609375 21.40625 126.476562 21.519531 126.355469 21.652344 C 126.234375 21.78125 126.132812 21.925781 126.042969 22.078125 C 125.953125 22.234375 125.882812 22.398438 125.832031 22.566406 C 125.777344 22.738281 125.746094 22.910156 125.730469 23.085938 C 125.71875 23.265625 125.722656 23.441406 125.75 23.617188 C 125.773438 23.792969 125.820312 23.964844 125.882812 24.132812 C 125.945312 24.296875 126.027344 24.453125 126.128906 24.601562 C 126.226562 24.75 126.339844 24.886719 126.46875 25.007812 C 126.597656 25.132812 126.738281 25.238281 126.890625 25.328125 C 127.042969 25.421875 127.207031 25.496094 127.375 25.550781 C 127.542969 25.605469 127.71875 25.640625 127.894531 25.660156 C 128.074219 25.675781 128.25 25.671875 128.425781 25.652344 C 128.601562 25.628906 128.773438 25.585938 128.941406 25.527344 C 129.109375 25.464844 129.269531 25.386719 129.417969 25.292969 C 129.570312 25.195312 129.707031 25.085938 129.832031 24.957031 C 129.957031 24.832031 130.066406 24.691406 130.160156 24.542969 C 130.253906 24.390625 130.332031 24.230469 130.390625 24.0625 C 130.425781 23.957031 130.5 23.894531 130.613281 23.878906 L 139.1875 22.808594 C 139.300781 22.792969 139.375 22.839844 139.417969 22.945312 L 143.085938 32.726562 C 143.125 32.832031 143.101562 32.917969 143.007812 32.984375 L 138.621094 36.324219 C 138.4375 36.460938 138.339844 36.644531 138.320312 36.871094 L 137.851562 42.703125 C 137.84375 42.816406 137.785156 42.871094 137.671875 42.878906 C 134.808594 42.902344 132.152344 42.175781 129.699219 40.699219 C 129.601562 40.640625 129.5625 40.554688 129.582031 40.445312 C 129.601562 40.320312 129.609375 40.199219 129.609375 40.074219 C 129.609375 39.753906 129.550781 39.449219 129.429688 39.15625 C 129.304688 38.863281 129.132812 38.601562 128.90625 38.378906 C 128.683594 38.152344 128.421875 37.980469 128.128906 37.859375 C 127.835938 37.738281 127.527344 37.675781 127.210938 37.675781 C 126.890625 37.675781 126.585938 37.738281 126.292969 37.859375 C 125.996094 37.980469 125.738281 38.152344 125.511719 38.378906 C 125.289062 38.601562 125.113281 38.863281 124.992188 39.15625 C 124.871094 39.449219 124.808594 39.753906 124.808594 40.074219 C 124.808594 40.390625 124.871094 40.695312 124.992188 40.992188 C 125.113281 41.285156 125.289062 41.542969 125.511719 41.769531 C 125.738281 41.992188 125.996094 42.167969 126.292969 42.289062 C 126.585938 42.410156 126.890625 42.472656 127.210938 42.472656 C 127.578125 42.46875 127.925781 42.386719 128.253906 42.222656 C 128.355469 42.167969 128.453125 42.167969 128.554688 42.222656 C 131.261719 43.886719 134.203125 44.738281 137.382812 44.773438 L 137.519531 44.773438 C 137.632812 44.769531 137.679688 44.828125 137.667969 44.9375 L 137.203125 50.695312 C 137.195312 50.808594 137.132812 50.867188 137.019531 50.867188 L 125.871094 50.867188 C 125.644531 50.867188 125.480469 50.964844 125.375 51.167969 L 123.234375 55.296875 C 123.183594 55.402344 123.105469 55.425781 123.003906 55.375 L 120.738281 54.304688 C 120.640625 54.253906 120.589844 54.171875 120.589844 54.066406 C 120.578125 53.75 120.503906 53.449219 120.375 53.160156 C 120.242188 52.875 120.0625 52.625 119.832031 52.40625 C 119.601562 52.191406 119.339844 52.027344 119.042969 51.917969 C 118.75 51.804688 118.441406 51.753906 118.128906 51.761719 C 117.8125 51.769531 117.507812 51.835938 117.222656 51.964844 C 116.933594 52.089844 116.679688 52.269531 116.460938 52.496094 C 116.242188 52.722656 116.074219 52.984375 115.957031 53.277344 C 115.839844 53.570312 115.785156 53.875 115.789062 54.191406 C 115.792969 54.503906 115.859375 54.808594 115.980469 55.097656 C 116.105469 55.386719 116.28125 55.644531 116.503906 55.863281 C 116.730469 56.085938 116.988281 56.257812 117.28125 56.375 C 117.574219 56.496094 117.875 56.554688 118.191406 56.554688 C 118.730469 56.546875 119.210938 56.375 119.628906 56.039062 C 119.71875 55.96875 119.8125 55.957031 119.914062 56.003906 L 123.699219 57.789062 C 123.785156 57.828125 123.871094 57.828125 123.960938 57.800781 C 124.046875 57.769531 124.117188 57.714844 124.164062 57.636719 L 126.613281 52.949219 C 126.664062 52.847656 126.746094 52.796875 126.859375 52.800781 L 138.613281 52.800781 C 138.710938 52.800781 138.796875 52.765625 138.867188 52.699219 C 138.9375 52.636719 138.976562 52.554688 138.984375 52.457031 L 140.179688 37.703125 C 140.183594 37.585938 140.234375 37.496094 140.328125 37.425781 L 145.15625 33.742188 C 145.335938 33.601562 145.386719 33.425781 145.304688 33.214844 Z M 97.175781 43.84375 C 97.175781 43.578125 97.269531 43.347656 97.457031 43.160156 C 97.644531 42.972656 97.871094 42.875 98.140625 42.875 C 98.40625 42.875 98.632812 42.96875 98.824219 43.15625 C 99.011719 43.34375 99.105469 43.574219 99.109375 43.839844 C 99.109375 44.105469 99.015625 44.332031 98.824219 44.523438 C 98.636719 44.710938 98.410156 44.804688 98.140625 44.804688 C 97.875 44.804688 97.648438 44.714844 97.457031 44.523438 C 97.269531 44.335938 97.171875 44.109375 97.171875 43.84375 Z M 128.136719 24.238281 C 127.867188 24.238281 127.640625 24.144531 127.453125 23.953125 C 127.261719 23.765625 127.167969 23.539062 127.167969 23.273438 C 127.167969 23.003906 127.265625 22.777344 127.453125 22.589844 C 127.644531 22.402344 127.871094 22.308594 128.136719 22.308594 C 128.40625 22.308594 128.632812 22.402344 128.820312 22.59375 C 129.007812 22.78125 129.101562 23.011719 129.101562 23.277344 C 129.101562 23.542969 129.003906 23.769531 128.816406 23.957031 C 128.628906 24.144531 128.402344 24.238281 128.136719 24.238281 Z M 126.242188 40.082031 C 126.242188 39.8125 126.339844 39.585938 126.527344 39.398438 C 126.714844 39.210938 126.941406 39.117188 127.210938 39.117188 C 127.476562 39.117188 127.703125 39.210938 127.894531 39.398438 C 128.082031 39.585938 128.175781 39.8125 128.175781 40.082031 C 128.175781 40.347656 128.082031 40.574219 127.894531 40.761719 C 127.703125 40.953125 127.476562 41.046875 127.210938 41.046875 C 126.941406 41.046875 126.714844 40.953125 126.527344 40.761719 C 126.339844 40.574219 126.242188 40.347656 126.242188 40.082031 Z M 118.195312 55.105469 C 117.929688 55.105469 117.699219 55.011719 117.511719 54.824219 C 117.320312 54.636719 117.226562 54.40625 117.226562 54.140625 C 117.226562 53.875 117.320312 53.648438 117.507812 53.457031 C 117.695312 53.269531 117.921875 53.175781 118.191406 53.175781 C 118.457031 53.171875 118.6875 53.269531 118.875 53.457031 C 119.0625 53.644531 119.15625 53.871094 119.15625 54.140625 C 119.160156 54.40625 119.066406 54.632812 118.878906 54.820312 C 118.6875 55.007812 118.460938 55.105469 118.195312 55.105469 Z M 118.195312 55.105469"/></g><path fill="#1D3ED3" d="M 117.035156 27.71875 C 116.984375 27.820312 116.90625 27.871094 116.789062 27.875 L 114.886719 27.875 C 114.773438 27.871094 114.691406 27.820312 114.644531 27.71875 C 114.5625 27.5625 114.460938 27.414062 114.347656 27.28125 C 114.230469 27.144531 114.101562 27.023438 113.960938 26.917969 C 113.816406 26.808594 113.664062 26.71875 113.503906 26.644531 C 113.339844 26.574219 113.171875 26.519531 113 26.484375 C 112.824219 26.449219 112.648438 26.433594 112.46875 26.433594 C 112.292969 26.4375 112.117188 26.460938 111.945312 26.503906 C 111.769531 26.546875 111.605469 26.609375 111.445312 26.6875 C 111.285156 26.765625 111.136719 26.863281 111 26.976562 C 110.863281 27.085938 110.738281 27.214844 110.628906 27.355469 C 110.519531 27.492188 110.425781 27.644531 110.347656 27.804688 C 110.273438 27.964844 110.214844 28.132812 110.175781 28.304688 C 110.136719 28.480469 110.117188 28.65625 110.117188 28.832031 C 110.117188 29.011719 110.136719 29.1875 110.175781 29.359375 C 110.214844 29.53125 110.273438 29.699219 110.347656 29.859375 C 110.425781 30.019531 110.519531 30.171875 110.628906 30.3125 C 110.738281 30.449219 110.863281 30.578125 111 30.691406 C 111.136719 30.800781 111.285156 30.898438 111.445312 30.976562 C 111.605469 31.058594 111.769531 31.117188 111.945312 31.160156 C 112.117188 31.203125 112.292969 31.226562 112.46875 31.230469 C 112.648438 31.234375 112.824219 31.214844 113 31.179688 C 113.171875 31.144531 113.339844 31.089844 113.503906 31.019531 C 113.664062 30.945312 113.816406 30.855469 113.960938 30.75 C 114.101562 30.640625 114.230469 30.519531 114.347656 30.386719 C 114.460938 30.25 114.5625 30.101562 114.644531 29.945312 C 114.691406 29.84375 114.773438 29.792969 114.886719 29.789062 L 116.789062 29.789062 C 116.90625 29.792969 116.984375 29.84375 117.035156 29.945312 C 117.117188 30.101562 117.21875 30.25 117.332031 30.386719 C 117.449219 30.523438 117.578125 30.644531 117.71875 30.75 C 117.863281 30.859375 118.015625 30.949219 118.175781 31.019531 C 118.339844 31.09375 118.507812 31.148438 118.683594 31.183594 C 118.859375 31.21875 119.035156 31.238281 119.214844 31.234375 C 119.390625 31.230469 119.566406 31.207031 119.742188 31.164062 C 119.914062 31.121094 120.078125 31.058594 120.238281 30.980469 C 120.398438 30.902344 120.546875 30.804688 120.6875 30.691406 C 120.824219 30.582031 120.949219 30.453125 121.058594 30.3125 C 121.167969 30.171875 121.261719 30.023438 121.339844 29.863281 C 121.414062 29.699219 121.472656 29.535156 121.511719 29.359375 C 121.550781 29.1875 121.570312 29.011719 121.570312 28.832031 C 121.570312 28.652344 121.550781 28.476562 121.511719 28.304688 C 121.472656 28.128906 121.414062 27.964844 121.339844 27.800781 C 121.261719 27.640625 121.167969 27.492188 121.058594 27.351562 C 120.949219 27.210938 120.824219 27.085938 120.6875 26.972656 C 120.546875 26.859375 120.398438 26.761719 120.238281 26.683594 C 120.078125 26.605469 119.914062 26.542969 119.742188 26.5 C 119.566406 26.457031 119.390625 26.433594 119.214844 26.429688 C 119.035156 26.429688 118.859375 26.445312 118.683594 26.480469 C 118.507812 26.515625 118.339844 26.570312 118.175781 26.644531 C 118.015625 26.714844 117.863281 26.808594 117.71875 26.914062 C 117.578125 27.019531 117.449219 27.144531 117.332031 27.277344 C 117.21875 27.414062 117.117188 27.5625 117.035156 27.71875 Z M 119.148438 29.792969 C 118.878906 29.792969 118.652344 29.699219 118.464844 29.511719 C 118.273438 29.324219 118.179688 29.09375 118.179688 28.828125 C 118.179688 28.5625 118.273438 28.335938 118.464844 28.144531 C 118.652344 27.957031 118.878906 27.863281 119.148438 27.863281 C 119.414062 27.863281 119.640625 27.957031 119.828125 28.144531 C 120.019531 28.335938 120.113281 28.5625 120.113281 28.828125 C 120.113281 28.957031 120.089844 29.078125 120.039062 29.199219 C 119.992188 29.316406 119.921875 29.421875 119.832031 29.511719 C 119.742188 29.601562 119.636719 29.671875 119.515625 29.722656 C 119.398438 29.769531 119.273438 29.792969 119.148438 29.792969 Z M 113.472656 28.828125 C 113.472656 29.09375 113.378906 29.324219 113.191406 29.511719 C 113.003906 29.703125 112.773438 29.796875 112.507812 29.796875 C 112.242188 29.796875 112.011719 29.703125 111.824219 29.515625 C 111.632812 29.324219 111.539062 29.097656 111.539062 28.832031 C 111.539062 28.5625 111.636719 28.335938 111.824219 28.148438 C 112.015625 27.960938 112.242188 27.867188 112.511719 27.867188 C 112.640625 27.867188 112.761719 27.890625 112.882812 27.9375 C 113 27.984375 113.105469 28.054688 113.199219 28.144531 C 113.289062 28.234375 113.359375 28.339844 113.410156 28.457031 C 113.460938 28.578125 113.484375 28.699219 113.484375 28.828125 Z M 113.472656 28.828125"/><path fill="#1D3ED3" d="M 123.636719 28.828125 C 123.636719 29.097656 123.679688 29.355469 123.765625 29.609375 C 123.855469 29.863281 123.980469 30.097656 124.148438 30.308594 C 124.3125 30.519531 124.507812 30.695312 124.734375 30.839844 C 124.957031 30.988281 125.203125 31.089844 125.460938 31.15625 C 125.722656 31.21875 125.984375 31.238281 126.253906 31.214844 C 126.519531 31.191406 126.777344 31.125 127.019531 31.015625 C 127.265625 30.902344 127.484375 30.757812 127.679688 30.574219 C 127.875 30.390625 128.035156 30.179688 128.160156 29.941406 C 128.210938 29.839844 128.292969 29.789062 128.40625 29.785156 L 134.175781 29.785156 C 134.292969 29.785156 134.351562 29.839844 134.347656 29.957031 L 134.347656 33.339844 C 134.347656 33.457031 134.292969 33.511719 134.175781 33.511719 L 118.425781 33.511719 C 118.332031 33.511719 118.25 33.546875 118.183594 33.613281 C 118.117188 33.679688 118.085938 33.757812 118.085938 33.851562 L 118.085938 47.296875 C 118.085938 47.390625 118.117188 47.46875 118.183594 47.535156 C 118.25 47.605469 118.332031 47.636719 118.425781 47.636719 L 124.796875 47.636719 C 124.910156 47.640625 124.988281 47.691406 125.03125 47.792969 C 125.105469 47.953125 125.199219 48.105469 125.304688 48.25 C 125.414062 48.390625 125.535156 48.519531 125.671875 48.632812 C 125.808594 48.746094 125.957031 48.847656 126.113281 48.929688 C 126.273438 49.011719 126.4375 49.074219 126.609375 49.117188 C 126.78125 49.164062 126.957031 49.191406 127.136719 49.195312 C 127.3125 49.203125 127.492188 49.1875 127.664062 49.15625 C 127.839844 49.121094 128.011719 49.070312 128.175781 49 C 128.335938 48.929688 128.492188 48.839844 128.636719 48.738281 C 128.78125 48.632812 128.910156 48.511719 129.027344 48.378906 C 129.144531 48.246094 129.246094 48.101562 129.332031 47.941406 C 129.417969 47.785156 129.484375 47.621094 129.53125 47.453125 C 129.582031 47.28125 129.609375 47.105469 129.621094 46.929688 C 129.628906 46.75 129.621094 46.574219 129.589844 46.398438 C 129.5625 46.222656 129.511719 46.050781 129.445312 45.886719 C 129.378906 45.722656 129.292969 45.566406 129.191406 45.421875 C 129.089844 45.273438 128.972656 45.140625 128.839844 45.023438 C 128.707031 44.902344 128.566406 44.796875 128.410156 44.710938 C 128.253906 44.621094 128.09375 44.550781 127.921875 44.5 C 127.75 44.449219 127.578125 44.414062 127.398438 44.402344 C 127.222656 44.386719 127.042969 44.394531 126.867188 44.421875 C 126.691406 44.445312 126.519531 44.492188 126.355469 44.554688 C 126.1875 44.621094 126.03125 44.703125 125.882812 44.800781 C 125.734375 44.898438 125.597656 45.015625 125.476562 45.144531 C 125.355469 45.273438 125.246094 45.414062 125.15625 45.566406 C 125.097656 45.660156 125.015625 45.710938 124.90625 45.710938 L 120.167969 45.710938 C 120.054688 45.710938 120 45.652344 120 45.539062 L 120 35.59375 C 120 35.484375 120.058594 35.425781 120.167969 35.421875 L 135.917969 35.421875 C 136.015625 35.421875 136.09375 35.390625 136.160156 35.324219 C 136.226562 35.257812 136.261719 35.175781 136.261719 35.082031 L 136.261719 28.203125 C 136.261719 28.109375 136.226562 28.03125 136.160156 27.964844 C 136.09375 27.898438 136.015625 27.863281 135.917969 27.863281 L 128.40625 27.863281 C 128.292969 27.863281 128.210938 27.808594 128.160156 27.707031 C 128.035156 27.46875 127.875 27.261719 127.679688 27.078125 C 127.484375 26.894531 127.265625 26.746094 127.019531 26.636719 C 126.777344 26.527344 126.519531 26.457031 126.253906 26.433594 C 125.984375 26.410156 125.722656 26.429688 125.460938 26.492188 C 125.203125 26.558594 124.957031 26.664062 124.734375 26.808594 C 124.507812 26.953125 124.3125 27.132812 124.148438 27.34375 C 123.980469 27.554688 123.855469 27.785156 123.765625 28.039062 C 123.679688 28.292969 123.636719 28.554688 123.636719 28.820312 Z M 126.238281 46.800781 C 126.238281 46.535156 126.332031 46.308594 126.519531 46.121094 C 126.707031 45.929688 126.9375 45.835938 127.203125 45.835938 C 127.46875 45.835938 127.695312 45.929688 127.886719 46.121094 C 128.074219 46.308594 128.167969 46.535156 128.167969 46.800781 C 128.167969 47.066406 128.074219 47.296875 127.886719 47.484375 C 127.695312 47.671875 127.46875 47.765625 127.203125 47.765625 C 126.9375 47.765625 126.710938 47.667969 126.523438 47.480469 C 126.339844 47.292969 126.246094 47.066406 126.242188 46.800781 Z M 126.027344 27.875 C 126.15625 27.871094 126.28125 27.890625 126.402344 27.9375 C 126.523438 27.984375 126.632812 28.050781 126.726562 28.140625 C 126.820312 28.230469 126.890625 28.332031 126.941406 28.453125 C 126.996094 28.570312 127.023438 28.695312 127.023438 28.824219 C 127.027344 28.953125 127.003906 29.078125 126.957031 29.195312 C 126.90625 29.316406 126.839844 29.421875 126.746094 29.515625 C 126.65625 29.605469 126.550781 29.679688 126.433594 29.726562 C 126.3125 29.777344 126.191406 29.804688 126.0625 29.804688 C 125.929688 29.804688 125.808594 29.78125 125.6875 29.730469 C 125.570312 29.679688 125.464844 29.609375 125.371094 29.519531 C 125.28125 29.425781 125.210938 29.320312 125.164062 29.203125 C 125.113281 29.082031 125.089844 28.957031 125.09375 28.828125 C 125.09375 28.566406 125.183594 28.34375 125.367188 28.15625 C 125.550781 27.96875 125.773438 27.871094 126.035156 27.867188 Z M 126.027344 27.875"/><path fill="#1D3ED3" d="M 119.632812 23.277344 C 119.632812 23.5625 119.683594 23.835938 119.78125 24.105469 C 119.878906 24.371094 120.019531 24.613281 120.203125 24.832031 C 120.390625 25.046875 120.605469 25.226562 120.855469 25.367188 C 121.101562 25.507812 121.367188 25.601562 121.648438 25.644531 C 121.929688 25.691406 122.210938 25.6875 122.492188 25.632812 C 122.769531 25.578125 123.03125 25.476562 123.277344 25.328125 C 123.519531 25.183594 123.730469 24.996094 123.910156 24.773438 C 124.085938 24.550781 124.222656 24.304688 124.3125 24.035156 C 124.402344 23.765625 124.441406 23.488281 124.433594 23.203125 C 124.425781 22.917969 124.367188 22.644531 124.257812 22.378906 C 124.152344 22.117188 124.003906 21.878906 123.8125 21.667969 C 123.621094 21.457031 123.398438 21.285156 123.144531 21.152344 C 123.042969 21.105469 122.992188 21.023438 122.988281 20.910156 L 122.988281 18.800781 C 122.992188 18.6875 123.042969 18.605469 123.144531 18.554688 C 123.300781 18.472656 123.449219 18.375 123.585938 18.257812 C 123.71875 18.144531 123.84375 18.015625 123.949219 17.875 C 124.054688 17.730469 124.144531 17.578125 124.21875 17.417969 C 124.292969 17.253906 124.347656 17.085938 124.382812 16.914062 C 124.417969 16.738281 124.433594 16.5625 124.429688 16.386719 C 124.425781 16.207031 124.402344 16.03125 124.359375 15.859375 C 124.320312 15.6875 124.257812 15.519531 124.179688 15.363281 C 124.097656 15.203125 124.003906 15.054688 123.890625 14.917969 C 123.777344 14.777344 123.652344 14.65625 123.511719 14.546875 C 123.371094 14.4375 123.21875 14.34375 123.058594 14.265625 C 122.898438 14.191406 122.730469 14.132812 122.558594 14.09375 C 122.382812 14.054688 122.207031 14.035156 122.03125 14.035156 C 121.851562 14.035156 121.675781 14.054688 121.503906 14.09375 C 121.328125 14.132812 121.160156 14.191406 121 14.265625 C 120.839844 14.34375 120.691406 14.4375 120.550781 14.546875 C 120.410156 14.65625 120.285156 14.777344 120.171875 14.917969 C 120.058594 15.054688 119.960938 15.203125 119.882812 15.363281 C 119.804688 15.519531 119.742188 15.6875 119.699219 15.859375 C 119.65625 16.03125 119.632812 16.207031 119.628906 16.386719 C 119.625 16.5625 119.644531 16.738281 119.679688 16.914062 C 119.714844 17.085938 119.769531 17.253906 119.839844 17.417969 C 119.914062 17.578125 120.003906 17.730469 120.113281 17.875 C 120.21875 18.015625 120.339844 18.144531 120.476562 18.257812 C 120.609375 18.375 120.757812 18.472656 120.914062 18.554688 C 121.015625 18.605469 121.070312 18.6875 121.070312 18.800781 L 121.070312 20.910156 C 121.070312 21.023438 121.015625 21.105469 120.914062 21.152344 C 120.519531 21.359375 120.207031 21.65625 119.980469 22.035156 C 119.75 22.417969 119.632812 22.832031 119.632812 23.277344 Z M 122.035156 24.238281 C 121.765625 24.238281 121.539062 24.144531 121.351562 23.953125 C 121.160156 23.765625 121.066406 23.539062 121.066406 23.273438 C 121.066406 23.003906 121.164062 22.777344 121.351562 22.589844 C 121.542969 22.402344 121.769531 22.308594 122.035156 22.308594 C 122.304688 22.308594 122.53125 22.402344 122.71875 22.59375 C 122.90625 22.78125 123 23.011719 123 23.277344 C 123 23.542969 122.90625 23.769531 122.714844 23.957031 C 122.527344 24.144531 122.300781 24.238281 122.035156 24.238281 Z M 122.035156 15.472656 C 122.300781 15.472656 122.527344 15.566406 122.71875 15.753906 C 122.90625 15.941406 123 16.171875 123 16.4375 C 123 16.703125 122.90625 16.929688 122.71875 17.121094 C 122.527344 17.308594 122.300781 17.402344 122.035156 17.402344 C 121.765625 17.402344 121.539062 17.308594 121.351562 17.121094 C 121.164062 16.929688 121.066406 16.703125 121.066406 16.4375 C 121.070312 16.171875 121.164062 15.945312 121.351562 15.753906 C 121.539062 15.566406 121.769531 15.472656 122.035156 15.472656 Z M 122.035156 15.472656"/><path fill="#1D3ED3" d="M 112.523438 48.832031 C 111.886719 48.832031 111.339844 49.050781 110.882812 49.488281 C 110.800781 49.566406 110.710938 49.578125 110.613281 49.53125 L 104.019531 46.289062 C 103.917969 46.238281 103.890625 46.160156 103.929688 46.054688 L 107.835938 36.28125 C 107.921875 36.066406 107.933594 35.851562 107.875 35.628906 L 104.726562 23.523438 C 104.699219 23.410156 104.6875 23.296875 104.683594 23.183594 L 104.683594 16.304688 C 104.6875 16.191406 104.738281 16.109375 104.839844 16.058594 C 105 15.976562 105.144531 15.875 105.28125 15.761719 C 105.417969 15.644531 105.539062 15.515625 105.648438 15.375 C 105.753906 15.234375 105.84375 15.082031 105.917969 14.917969 C 105.992188 14.757812 106.046875 14.585938 106.082031 14.414062 C 106.117188 14.238281 106.132812 14.0625 106.128906 13.882812 C 106.125 13.707031 106.101562 13.53125 106.0625 13.359375 C 106.019531 13.183594 105.957031 13.019531 105.878906 12.859375 C 105.796875 12.699219 105.703125 12.550781 105.589844 12.414062 C 105.476562 12.273438 105.351562 12.152344 105.210938 12.042969 C 105.070312 11.929688 104.917969 11.839844 104.757812 11.761719 C 104.597656 11.683594 104.429688 11.628906 104.253906 11.589844 C 104.082031 11.550781 103.90625 11.53125 103.726562 11.53125 C 103.546875 11.53125 103.371094 11.550781 103.199219 11.589844 C 103.023438 11.628906 102.855469 11.683594 102.695312 11.761719 C 102.535156 11.839844 102.382812 11.929688 102.242188 12.042969 C 102.101562 12.152344 101.976562 12.273438 101.863281 12.414062 C 101.75 12.550781 101.65625 12.699219 101.574219 12.859375 C 101.496094 13.019531 101.433594 13.183594 101.390625 13.359375 C 101.347656 13.53125 101.324219 13.707031 101.324219 13.882812 C 101.320312 14.0625 101.335938 14.238281 101.371094 14.414062 C 101.40625 14.585938 101.460938 14.757812 101.535156 14.917969 C 101.609375 15.082031 101.699219 15.234375 101.804688 15.375 C 101.914062 15.515625 102.035156 15.644531 102.171875 15.761719 C 102.304688 15.875 102.453125 15.976562 102.613281 16.058594 C 102.714844 16.109375 102.765625 16.191406 102.769531 16.304688 L 102.769531 23.257812 C 102.765625 23.484375 102.792969 23.710938 102.851562 23.929688 L 105.90625 35.671875 C 105.933594 35.78125 105.925781 35.890625 105.886719 35.996094 L 101.554688 46.832031 C 101.519531 46.921875 101.519531 47.011719 101.554688 47.101562 C 101.589844 47.191406 101.652344 47.257812 101.738281 47.300781 L 109.984375 51.351562 C 110.085938 51.40625 110.140625 51.488281 110.160156 51.601562 C 110.207031 51.902344 110.308594 52.1875 110.464844 52.449219 C 110.625 52.714844 110.824219 52.9375 111.066406 53.125 C 111.3125 53.3125 111.582031 53.445312 111.878906 53.53125 C 112.171875 53.613281 112.472656 53.636719 112.777344 53.605469 C 113.085938 53.574219 113.371094 53.484375 113.644531 53.34375 C 113.917969 53.199219 114.152344 53.011719 114.351562 52.777344 C 114.550781 52.542969 114.699219 52.28125 114.796875 51.992188 C 114.894531 51.699219 114.933594 51.402344 114.917969 51.09375 C 114.902344 50.789062 114.828125 50.496094 114.699219 50.21875 C 114.570312 49.941406 114.394531 49.695312 114.171875 49.484375 C 113.945312 49.273438 113.691406 49.113281 113.40625 49 C 113.121094 48.886719 112.824219 48.832031 112.519531 48.832031 Z M 103.726562 12.988281 C 103.992188 12.988281 104.222656 13.082031 104.410156 13.269531 C 104.601562 13.457031 104.695312 13.683594 104.695312 13.953125 C 104.695312 14.21875 104.601562 14.445312 104.414062 14.636719 C 104.226562 14.824219 104 14.917969 103.730469 14.917969 C 103.464844 14.917969 103.234375 14.824219 103.046875 14.636719 C 102.859375 14.449219 102.765625 14.222656 102.765625 13.953125 C 102.761719 13.6875 102.855469 13.460938 103.042969 13.273438 C 103.234375 13.082031 103.460938 12.988281 103.726562 12.988281 Z M 112.523438 52.195312 C 112.253906 52.195312 112.027344 52.101562 111.835938 51.914062 C 111.648438 51.726562 111.550781 51.5 111.550781 51.230469 C 111.550781 50.964844 111.644531 50.738281 111.832031 50.546875 C 112.023438 50.359375 112.25 50.265625 112.515625 50.265625 C 112.785156 50.265625 113.011719 50.359375 113.199219 50.546875 C 113.390625 50.734375 113.484375 50.960938 113.484375 51.230469 C 113.484375 51.496094 113.390625 51.722656 113.203125 51.910156 C 113.015625 52.097656 112.789062 52.191406 112.523438 52.195312 Z M 112.523438 52.195312"/><path fill="#1D3ED3" d="M 108.871094 20.910156 C 108.871094 21.023438 108.820312 21.105469 108.714844 21.152344 C 108.558594 21.238281 108.410156 21.335938 108.277344 21.449219 C 108.140625 21.566406 108.019531 21.695312 107.910156 21.835938 C 107.804688 21.980469 107.714844 22.132812 107.640625 22.292969 C 107.566406 22.457031 107.511719 22.625 107.476562 22.800781 C 107.441406 22.972656 107.425781 23.148438 107.425781 23.328125 C 107.429688 23.507812 107.453125 23.679688 107.496094 23.855469 C 107.539062 24.027344 107.601562 24.195312 107.679688 24.351562 C 107.757812 24.511719 107.855469 24.660156 107.96875 24.800781 C 108.082031 24.9375 108.207031 25.0625 108.347656 25.171875 C 108.488281 25.28125 108.640625 25.375 108.800781 25.449219 C 108.960938 25.527344 109.128906 25.585938 109.304688 25.625 C 109.476562 25.664062 109.652344 25.683594 109.832031 25.683594 C 110.007812 25.683594 110.1875 25.664062 110.359375 25.625 C 110.535156 25.585938 110.703125 25.527344 110.863281 25.449219 C 111.023438 25.375 111.175781 25.28125 111.316406 25.171875 C 111.453125 25.0625 111.582031 24.9375 111.695312 24.800781 C 111.808594 24.660156 111.902344 24.511719 111.984375 24.351562 C 112.0625 24.195312 112.125 24.027344 112.164062 23.855469 C 112.207031 23.679688 112.230469 23.507812 112.234375 23.328125 C 112.238281 23.148438 112.222656 22.972656 112.1875 22.800781 C 112.152344 22.625 112.097656 22.457031 112.023438 22.292969 C 111.949219 22.132812 111.859375 21.980469 111.75 21.835938 C 111.644531 21.695312 111.523438 21.566406 111.386719 21.449219 C 111.25 21.335938 111.105469 21.238281 110.945312 21.152344 C 110.84375 21.105469 110.792969 21.023438 110.789062 20.910156 L 110.789062 12.707031 C 110.789062 12.59375 110.832031 12.5 110.914062 12.421875 L 114.390625 9.113281 C 114.476562 9.039062 114.574219 9.019531 114.679688 9.058594 C 115.003906 9.167969 115.335938 9.207031 115.675781 9.175781 C 116.011719 9.144531 116.332031 9.042969 116.628906 8.875 C 116.925781 8.707031 117.175781 8.488281 117.378906 8.214844 C 117.582031 7.941406 117.71875 7.636719 117.792969 7.304688 C 117.867188 6.972656 117.871094 6.640625 117.800781 6.304688 C 117.734375 5.972656 117.597656 5.667969 117.398438 5.390625 C 117.203125 5.113281 116.953125 4.890625 116.660156 4.71875 C 116.367188 4.546875 116.050781 4.441406 115.710938 4.40625 C 115.371094 4.367188 115.039062 4.402344 114.714844 4.503906 C 114.390625 4.609375 114.101562 4.777344 113.847656 5.003906 C 113.59375 5.230469 113.398438 5.5 113.257812 5.8125 C 113.117188 6.121094 113.050781 6.445312 113.050781 6.789062 C 113.050781 7.011719 113.082031 7.234375 113.148438 7.449219 C 113.183594 7.554688 113.160156 7.644531 113.078125 7.722656 L 109.113281 11.484375 C 108.949219 11.636719 108.867188 11.832031 108.867188 12.058594 Z M 115.429688 5.828125 C 115.699219 5.824219 115.925781 5.917969 116.117188 6.109375 C 116.304688 6.296875 116.402344 6.523438 116.402344 6.789062 C 116.402344 7.058594 116.308594 7.285156 116.117188 7.472656 C 115.929688 7.664062 115.699219 7.757812 115.433594 7.757812 C 115.167969 7.757812 114.9375 7.660156 114.75 7.472656 C 114.5625 7.28125 114.46875 7.054688 114.46875 6.789062 C 114.46875 6.523438 114.5625 6.296875 114.75 6.109375 C 114.9375 5.921875 115.164062 5.828125 115.429688 5.828125 Z M 109.832031 24.238281 C 109.5625 24.238281 109.335938 24.144531 109.144531 23.957031 C 108.957031 23.769531 108.863281 23.542969 108.863281 23.273438 C 108.859375 23.007812 108.957031 22.78125 109.144531 22.589844 C 109.332031 22.402344 109.5625 22.308594 109.828125 22.308594 C 110.097656 22.308594 110.324219 22.402344 110.511719 22.59375 C 110.699219 22.78125 110.792969 23.007812 110.792969 23.277344 C 110.792969 23.542969 110.699219 23.769531 110.511719 23.957031 C 110.324219 24.144531 110.097656 24.238281 109.832031 24.238281 Z M 109.832031 24.238281"/><path fill="#1D3ED3" d="M 132.675781 17.320312 C 132.675781 17.617188 132.726562 17.902344 132.832031 18.179688 C 132.941406 18.457031 133.09375 18.707031 133.289062 18.929688 C 133.488281 19.148438 133.722656 19.328125 133.984375 19.460938 C 134.25 19.597656 134.53125 19.679688 134.828125 19.710938 C 135.121094 19.742188 135.414062 19.71875 135.699219 19.640625 C 135.988281 19.5625 136.25 19.4375 136.492188 19.261719 C 136.730469 19.089844 136.929688 18.875 137.09375 18.625 C 137.253906 18.378906 137.363281 18.109375 137.425781 17.816406 C 137.488281 17.527344 137.492188 17.234375 137.445312 16.941406 C 137.398438 16.648438 137.300781 16.375 137.148438 16.117188 C 137 15.863281 136.808594 15.640625 136.578125 15.453125 C 136.34375 15.269531 136.085938 15.132812 135.804688 15.042969 C 135.691406 15.011719 135.613281 14.941406 135.5625 14.835938 L 133.960938 11.476562 C 133.863281 11.269531 133.703125 11.167969 133.476562 11.167969 L 129.308594 11.167969 C 129.195312 11.164062 129.117188 11.109375 129.0625 11.011719 C 128.980469 10.855469 128.882812 10.707031 128.765625 10.570312 C 128.652344 10.4375 128.523438 10.316406 128.382812 10.207031 C 128.238281 10.101562 128.085938 10.011719 127.925781 9.9375 C 127.761719 9.867188 127.59375 9.8125 127.417969 9.777344 C 127.246094 9.738281 127.070312 9.722656 126.890625 9.726562 C 126.710938 9.730469 126.539062 9.753906 126.363281 9.796875 C 126.191406 9.839844 126.027344 9.898438 125.867188 9.980469 C 125.707031 10.058594 125.558594 10.15625 125.421875 10.265625 C 125.28125 10.378906 125.160156 10.503906 125.050781 10.644531 C 124.9375 10.785156 124.847656 10.9375 124.769531 11.097656 C 124.695312 11.257812 124.636719 11.425781 124.597656 11.597656 C 124.558594 11.769531 124.539062 11.945312 124.539062 12.125 C 124.539062 12.300781 124.558594 12.476562 124.597656 12.652344 C 124.636719 12.824219 124.695312 12.992188 124.769531 13.152344 C 124.847656 13.3125 124.9375 13.464844 125.050781 13.601562 C 125.160156 13.742188 125.28125 13.871094 125.421875 13.980469 C 125.558594 14.09375 125.707031 14.191406 125.867188 14.269531 C 126.027344 14.347656 126.191406 14.410156 126.363281 14.453125 C 126.539062 14.496094 126.710938 14.519531 126.890625 14.519531 C 127.070312 14.523438 127.246094 14.507812 127.417969 14.472656 C 127.59375 14.4375 127.761719 14.382812 127.925781 14.308594 C 128.085938 14.238281 128.238281 14.148438 128.382812 14.039062 C 128.523438 13.933594 128.652344 13.8125 128.765625 13.675781 C 128.882812 13.542969 128.980469 13.394531 129.0625 13.238281 C 129.113281 13.136719 129.195312 13.085938 129.308594 13.082031 L 132.4375 13.082031 C 132.550781 13.082031 132.628906 13.132812 132.679688 13.234375 L 133.636719 15.214844 C 133.683594 15.320312 133.664062 15.40625 133.570312 15.476562 C 132.980469 15.949219 132.679688 16.5625 132.675781 17.320312 Z M 127.910156 12.125 C 127.910156 12.390625 127.8125 12.617188 127.625 12.808594 C 127.4375 12.996094 127.207031 13.089844 126.941406 13.089844 C 126.671875 13.089844 126.445312 12.992188 126.257812 12.804688 C 126.070312 12.613281 125.976562 12.386719 125.976562 12.121094 C 125.976562 11.851562 126.074219 11.625 126.265625 11.4375 C 126.453125 11.25 126.683594 11.15625 126.949219 11.160156 C 127.214844 11.160156 127.441406 11.257812 127.628906 11.445312 C 127.8125 11.628906 127.90625 11.855469 127.910156 12.121094 Z M 135.078125 16.359375 C 135.34375 16.359375 135.570312 16.453125 135.757812 16.640625 C 135.949219 16.828125 136.042969 17.058594 136.042969 17.324219 C 136.042969 17.589844 135.949219 17.816406 135.757812 18.007812 C 135.570312 18.195312 135.34375 18.289062 135.078125 18.289062 C 134.808594 18.289062 134.582031 18.195312 134.394531 18.007812 C 134.203125 17.816406 134.109375 17.589844 134.109375 17.324219 C 134.109375 17.195312 134.132812 17.070312 134.183594 16.953125 C 134.230469 16.832031 134.300781 16.730469 134.390625 16.636719 C 134.480469 16.546875 134.585938 16.476562 134.707031 16.429688 C 134.824219 16.378906 134.949219 16.355469 135.078125 16.355469 Z M 135.078125 16.359375"/></svg>