<svg xmlns="http://www.w3.org/2000/svg" width="488.25" viewBox="0 0 488.25 65.25" height="65.25" version="1.0"><defs><clipPath id="a"><path d="M 2.402344 0 L 485.105469 0 L 485.105469 64.507812 L 2.402344 64.507812 Z M 2.402344 0"/></clipPath><clipPath id="b"><path d="M 104.765625 10.5625 L 141.839844 10.5625 L 141.839844 54.308594 L 104.765625 54.308594 Z M 104.765625 10.5625"/></clipPath></defs><g clip-path="url(#a)" fill="#FFF"><path d="M 2.402344 0 L 485.847656 0 L 485.847656 71.921875 L 2.402344 71.921875 Z M 2.402344 0"/><path d="M 2.402344 0 L 485.105469 0 L 485.105469 64.507812 L 2.402344 64.507812 Z M 2.402344 0"/><path d="M 2.402344 0 L 485.105469 0 L 485.105469 64.507812 L 2.402344 64.507812 Z M 2.402344 0"/></g><g><g><g><path d="M 23.53125 -31.953125 L 31.3125 -31.953125 L 31.3125 0 L 23.53125 0 L 23.53125 -13.25 L 11.203125 -13.25 L 11.203125 0 L 3.40625 0 L 3.40625 -31.953125 L 11.203125 -31.953125 L 11.203125 -19.15625 L 23.53125 -19.15625 Z M 23.53125 -31.953125" transform="translate(150.348 45.6)"/></g></g></g><g><g><g><path d="M 1.78125 -0.453125 L 1.78125 -6.234375 C 2.59375 -6.960938 3.742188 -7.960938 5.234375 -9.234375 C 6.722656 -10.515625 7.875 -11.507812 8.6875 -12.21875 C 9.507812 -12.9375 10.46875 -13.832031 11.5625 -14.90625 C 12.65625 -15.976562 13.472656 -16.894531 14.015625 -17.65625 C 15.441406 -19.632812 16.15625 -21.347656 16.15625 -22.796875 C 16.15625 -25.378906 15.019531 -26.671875 12.75 -26.671875 C 11.65625 -26.671875 10.785156 -26.28125 10.140625 -25.5 C 9.503906 -24.726562 9.1875 -23.617188 9.1875 -22.171875 L 1.6875 -22.171875 C 1.6875 -25.804688 2.738281 -28.554688 4.84375 -30.421875 C 6.957031 -32.285156 9.726562 -33.21875 13.15625 -33.21875 C 16.582031 -33.21875 19.25 -32.238281 21.15625 -30.28125 C 23.070312 -28.332031 24.03125 -25.976562 24.03125 -23.21875 C 24.03125 -21.125 23.578125 -19.285156 22.671875 -17.703125 C 22.117188 -16.796875 21.644531 -16.019531 21.25 -15.375 C 20.851562 -14.738281 20.203125 -13.953125 19.296875 -13.015625 C 18.390625 -12.078125 17.722656 -11.394531 17.296875 -10.96875 C 16.867188 -10.539062 16.085938 -9.8125 14.953125 -8.78125 C 13.816406 -7.75 13.097656 -7.082031 12.796875 -6.78125 L 24.625 -6.78125 L 24.625 -0.453125 Z M 1.78125 -0.453125" transform="translate(183.933 45.6)"/></g></g></g><g><g><g><path d="M 11.203125 -12.421875 L 11.203125 0 L 3.40625 0 L 3.40625 -31.953125 L 16.015625 -31.953125 C 19.722656 -31.953125 22.609375 -30.992188 24.671875 -29.078125 C 26.734375 -27.171875 27.765625 -24.867188 27.765625 -22.171875 C 27.765625 -20.316406 27.203125 -18.507812 26.078125 -16.75 C 24.953125 -14.988281 23.117188 -13.742188 20.578125 -13.015625 L 28.40625 0 L 19.296875 0 L 12.109375 -12.421875 Z M 11.203125 -26.03125 L 11.203125 -18.34375 L 16.015625 -18.34375 C 17.203125 -18.34375 18.132812 -18.691406 18.8125 -19.390625 C 19.5 -20.085938 19.84375 -21.003906 19.84375 -22.140625 C 19.84375 -23.273438 19.492188 -24.207031 18.796875 -24.9375 C 18.097656 -25.664062 17.171875 -26.03125 16.015625 -26.03125 Z M 11.203125 -26.03125" transform="translate(208.78 45.6)"/></g></g></g><g><g><g><path d="M 22.75 -32.046875 L 22.75 -26.125 L 11.203125 -26.125 L 11.203125 -19.25 L 21.390625 -19.25 L 21.390625 -13.34375 L 11.203125 -13.34375 L 11.203125 -5.921875 L 22.75 -5.921875 L 22.75 0 L 3.40625 0 L 3.40625 -32.046875 Z M 22.75 -32.046875" transform="translate(238.041 45.6)"/></g></g></g><g><g><g><path d="M 14.25 -26.265625 C 13.28125 -26.265625 12.484375 -26.003906 11.859375 -25.484375 C 11.234375 -24.972656 10.921875 -24.226562 10.921875 -23.25 C 10.921875 -22.28125 11.207031 -21.5 11.78125 -20.90625 C 12.363281 -20.320312 13.117188 -19.867188 14.046875 -19.546875 C 14.972656 -19.234375 16.003906 -18.929688 17.140625 -18.640625 C 18.273438 -18.347656 19.40625 -18 20.53125 -17.59375 C 21.65625 -17.1875 22.675781 -16.675781 23.59375 -16.0625 C 24.519531 -15.457031 25.269531 -14.597656 25.84375 -13.484375 C 26.425781 -12.378906 26.71875 -11.054688 26.71875 -9.515625 C 26.71875 -6.816406 25.617188 -4.503906 23.421875 -2.578125 C 21.222656 -0.648438 18.320312 0.3125 14.71875 0.3125 C 11.125 0.3125 8.226562 -0.550781 6.03125 -2.28125 C 3.832031 -4.007812 2.734375 -6.46875 2.734375 -9.65625 L 11.015625 -9.65625 C 11.222656 -7.101562 12.523438 -5.828125 14.921875 -5.828125 C 16.046875 -5.828125 16.925781 -6.117188 17.5625 -6.703125 C 18.207031 -7.296875 18.53125 -8.046875 18.53125 -8.953125 C 18.53125 -9.867188 18.238281 -10.613281 17.65625 -11.1875 C 17.082031 -11.769531 16.332031 -12.226562 15.40625 -12.5625 C 14.476562 -12.894531 13.445312 -13.203125 12.3125 -13.484375 C 11.175781 -13.773438 10.046875 -14.132812 8.921875 -14.5625 C 7.796875 -14.988281 6.769531 -15.5 5.84375 -16.09375 C 4.914062 -16.6875 4.164062 -17.535156 3.59375 -18.640625 C 3.019531 -19.742188 2.734375 -21.054688 2.734375 -22.578125 C 2.734375 -25.546875 3.835938 -27.925781 6.046875 -29.71875 C 8.265625 -31.507812 11.09375 -32.40625 14.53125 -32.40625 C 17.976562 -32.40625 20.765625 -31.625 22.890625 -30.0625 C 25.015625 -28.5 26.125 -26.035156 26.21875 -22.671875 L 17.75 -22.671875 C 17.625 -23.816406 17.25 -24.703125 16.625 -25.328125 C 16.007812 -25.953125 15.21875 -26.265625 14.25 -26.265625 Z M 14.25 -26.265625" transform="translate(262.934 45.6)"/></g></g></g><g fill="#1D3ED3"><g><g><path d="M 23.71875 0 L 21.9375 -5.375 L 10.46875 -5.375 L 8.6875 0 L 0.40625 0 L 11.515625 -32.046875 L 20.984375 -32.046875 L 32.046875 0 Z M 12.421875 -11.28125 L 19.984375 -11.28125 L 16.203125 -22.671875 Z M 12.421875 -11.28125" transform="translate(291.229 45.6)"/></g></g></g><g fill="#1D3ED3"><g><g><path d="M 3.40625 0 L 3.40625 -31.953125 L 11.203125 -31.953125 L 11.203125 0 Z M 3.40625 0" transform="translate(322.538 45.6)"/></g></g></g><path fill="#1D3ED3" d="M 117.296875 38.683594 C 117.328125 38.605469 117.386719 38.5625 117.46875 38.558594 C 117.703125 38.535156 117.921875 38.472656 118.128906 38.367188 C 118.335938 38.257812 118.515625 38.117188 118.667969 37.9375 C 118.820312 37.761719 118.933594 37.558594 119.011719 37.335938 C 119.085938 37.113281 119.117188 36.882812 119.101562 36.648438 C 119.089844 36.414062 119.03125 36.191406 118.933594 35.976562 C 118.832031 35.765625 118.699219 35.578125 118.527344 35.417969 C 118.355469 35.257812 118.160156 35.136719 117.941406 35.054688 C 117.722656 34.972656 117.5 34.9375 117.265625 34.941406 C 117.03125 34.949219 116.808594 35 116.597656 35.097656 C 116.382812 35.191406 116.195312 35.324219 116.035156 35.492188 C 115.871094 35.660156 115.746094 35.855469 115.660156 36.074219 C 115.574219 36.292969 115.53125 36.519531 115.53125 36.753906 C 115.53125 37.191406 115.667969 37.578125 115.949219 37.910156 C 116.003906 37.976562 116.015625 38.046875 115.980469 38.128906 L 113.925781 43.125 C 113.863281 43.28125 113.910156 43.398438 114.058594 43.476562 L 115.425781 44.183594 C 115.496094 44.226562 115.53125 44.289062 115.527344 44.371094 C 115.53125 44.609375 115.578125 44.839844 115.671875 45.0625 C 115.765625 45.28125 115.898438 45.476562 116.066406 45.640625 C 116.234375 45.808594 116.429688 45.9375 116.648438 46.027344 C 116.871094 46.117188 117.097656 46.160156 117.335938 46.160156 C 117.570312 46.15625 117.796875 46.109375 118.015625 46.015625 C 118.234375 45.921875 118.425781 45.789062 118.59375 45.617188 C 118.757812 45.449219 118.886719 45.25 118.976562 45.03125 C 119.066406 44.808594 119.109375 44.578125 119.109375 44.335938 C 119.105469 44.097656 119.0625 43.867188 118.96875 43.644531 C 118.878906 43.425781 118.75 43.230469 118.582031 43.058594 C 118.414062 42.890625 118.21875 42.761719 118 42.667969 C 117.78125 42.578125 117.554688 42.53125 117.316406 42.53125 C 116.9375 42.53125 116.597656 42.644531 116.289062 42.871094 C 116.222656 42.925781 116.148438 42.933594 116.070312 42.894531 L 115.769531 42.738281 C 115.695312 42.703125 115.671875 42.640625 115.703125 42.5625 Z M 117.316406 36.023438 C 117.515625 36.023438 117.6875 36.097656 117.828125 36.238281 C 117.96875 36.382812 118.039062 36.554688 118.039062 36.753906 C 118.039062 36.957031 117.96875 37.128906 117.828125 37.269531 C 117.6875 37.414062 117.515625 37.484375 117.316406 37.484375 C 117.117188 37.484375 116.949219 37.414062 116.808594 37.269531 C 116.667969 37.128906 116.597656 36.957031 116.597656 36.753906 C 116.597656 36.554688 116.667969 36.378906 116.808594 36.238281 C 116.949219 36.09375 117.117188 36.023438 117.316406 36.023438 Z M 117.316406 43.605469 C 117.515625 43.605469 117.6875 43.675781 117.828125 43.816406 C 117.96875 43.960938 118.039062 44.132812 118.039062 44.335938 C 118.039062 44.535156 117.96875 44.707031 117.828125 44.851562 C 117.6875 44.992188 117.515625 45.0625 117.316406 45.0625 C 117.117188 45.0625 116.949219 44.992188 116.808594 44.851562 C 116.667969 44.707031 116.597656 44.535156 116.597656 44.335938 C 116.597656 44.132812 116.671875 43.964844 116.8125 43.824219 C 116.953125 43.683594 117.121094 43.613281 117.316406 43.617188 Z M 117.316406 43.605469"/><path fill="#1D3ED3" d="M 119.238281 26.34375 C 119.238281 26.429688 119.195312 26.488281 119.121094 26.523438 C 118.875 26.636719 118.664062 26.796875 118.492188 27.003906 C 118.316406 27.210938 118.195312 27.449219 118.128906 27.710938 C 118.058594 27.976562 118.050781 28.242188 118.097656 28.511719 C 118.148438 28.777344 118.25 29.023438 118.410156 29.242188 C 118.566406 29.464844 118.765625 29.640625 119.003906 29.769531 C 119.238281 29.902344 119.492188 29.972656 119.761719 29.988281 C 120.027344 30.003906 120.289062 29.960938 120.539062 29.859375 C 120.785156 29.753906 121.003906 29.605469 121.183594 29.402344 C 121.367188 29.203125 121.496094 28.96875 121.574219 28.710938 C 121.65625 28.449219 121.675781 28.183594 121.636719 27.914062 C 121.597656 27.644531 121.503906 27.394531 121.355469 27.167969 C 121.203125 26.941406 121.015625 26.757812 120.78125 26.617188 C 120.707031 26.578125 120.671875 26.511719 120.667969 26.425781 L 120.667969 21.960938 C 120.667969 21.875 120.699219 21.800781 120.753906 21.734375 L 123.714844 18.582031 C 123.773438 18.523438 123.84375 18.503906 123.921875 18.53125 C 124.082031 18.582031 124.246094 18.605469 124.414062 18.605469 C 124.667969 18.605469 124.914062 18.554688 125.144531 18.449219 C 125.375 18.34375 125.578125 18.195312 125.746094 18.003906 C 125.917969 17.8125 126.042969 17.59375 126.121094 17.347656 C 126.195312 17.101562 126.222656 16.851562 126.195312 16.597656 C 126.167969 16.339844 126.089844 16.101562 125.960938 15.878906 C 125.832031 15.65625 125.664062 15.46875 125.457031 15.320312 C 125.25 15.167969 125.023438 15.066406 124.773438 15.015625 C 124.523438 14.964844 124.277344 14.964844 124.027344 15.023438 C 123.78125 15.078125 123.554688 15.183594 123.347656 15.335938 C 123.144531 15.488281 122.980469 15.675781 122.855469 15.902344 C 122.730469 16.125 122.65625 16.367188 122.632812 16.625 C 122.609375 16.878906 122.636719 17.128906 122.71875 17.375 C 122.746094 17.457031 122.734375 17.527344 122.675781 17.59375 L 119.414062 21.066406 C 119.296875 21.191406 119.238281 21.335938 119.238281 21.507812 Z M 124.414062 16.0625 C 124.613281 16.0625 124.785156 16.132812 124.925781 16.277344 C 125.066406 16.417969 125.136719 16.589844 125.136719 16.792969 C 125.136719 16.996094 125.066406 17.167969 124.925781 17.308594 C 124.785156 17.453125 124.613281 17.523438 124.414062 17.523438 C 124.214844 17.523438 124.046875 17.453125 123.90625 17.308594 C 123.765625 17.167969 123.695312 16.996094 123.695312 16.792969 C 123.695312 16.589844 123.765625 16.417969 123.90625 16.277344 C 124.046875 16.136719 124.214844 16.0625 124.414062 16.0625 Z M 119.148438 28.167969 C 119.148438 27.964844 119.214844 27.792969 119.355469 27.648438 C 119.496094 27.507812 119.667969 27.433594 119.867188 27.433594 C 120.066406 27.433594 120.234375 27.503906 120.375 27.648438 C 120.519531 27.789062 120.589844 27.960938 120.589844 28.164062 C 120.589844 28.367188 120.519531 28.539062 120.378906 28.679688 C 120.238281 28.824219 120.066406 28.894531 119.867188 28.894531 C 119.667969 28.898438 119.496094 28.828125 119.355469 28.683594 C 119.214844 28.542969 119.140625 28.371094 119.140625 28.167969 Z M 119.148438 28.167969"/><g clip-path="url(#b)"><path fill="#1D3ED3" d="M 138.582031 27.035156 C 138.550781 26.957031 138.542969 26.875 138.550781 26.789062 L 139.425781 18.804688 C 139.445312 18.636719 139.386719 18.496094 139.25 18.394531 L 130.960938 12.007812 C 130.828125 11.902344 130.675781 11.839844 130.503906 11.828125 L 116.972656 10.5625 C 116.800781 10.546875 116.648438 10.589844 116.511719 10.691406 L 106.0625 18.355469 C 105.925781 18.457031 105.859375 18.59375 105.859375 18.761719 L 105.859375 28.480469 C 105.855469 28.652344 105.882812 28.816406 105.933594 28.980469 L 108.464844 36.949219 C 108.492188 37.027344 108.492188 37.109375 108.464844 37.191406 L 106.632812 41.800781 C 106.601562 41.882812 106.542969 41.921875 106.460938 41.929688 C 106.226562 41.945312 106.007812 42.007812 105.796875 42.113281 C 105.589844 42.21875 105.40625 42.359375 105.253906 42.535156 C 105.097656 42.714844 104.984375 42.914062 104.90625 43.136719 C 104.832031 43.359375 104.796875 43.589844 104.808594 43.824219 C 104.820312 44.058594 104.875 44.285156 104.976562 44.5 C 105.074219 44.714844 105.207031 44.902344 105.378906 45.0625 C 105.550781 45.222656 105.746094 45.34375 105.960938 45.425781 C 106.179688 45.511719 106.40625 45.550781 106.640625 45.542969 C 106.871094 45.539062 107.09375 45.488281 107.308594 45.394531 C 107.523438 45.300781 107.710938 45.167969 107.875 45 C 108.035156 44.832031 108.164062 44.636719 108.25 44.417969 C 108.339844 44.199219 108.382812 43.972656 108.382812 43.734375 C 108.382812 43.304688 108.246094 42.925781 107.976562 42.59375 C 107.925781 42.527344 107.914062 42.457031 107.941406 42.378906 L 109.925781 37.351562 C 109.992188 37.195312 109.996094 37.03125 109.941406 36.871094 L 107.316406 28.660156 C 107.289062 28.578125 107.277344 28.492188 107.277344 28.40625 L 107.277344 19.375 C 107.277344 19.289062 107.308594 19.21875 107.378906 19.171875 L 117.03125 12.105469 C 117.105469 12.054688 117.183594 12.03125 117.269531 12.042969 L 130.09375 13.238281 C 130.179688 13.246094 130.253906 13.277344 130.320312 13.328125 L 137.84375 19.125 C 137.910156 19.179688 137.941406 19.246094 137.929688 19.332031 L 137.175781 26.234375 C 137.164062 26.320312 137.117188 26.367188 137.035156 26.378906 L 130.609375 27.191406 C 130.523438 27.203125 130.457031 27.171875 130.410156 27.105469 C 130.253906 26.882812 130.054688 26.707031 129.820312 26.574219 C 129.585938 26.445312 129.332031 26.371094 129.0625 26.355469 C 128.792969 26.339844 128.535156 26.382812 128.285156 26.484375 C 128.035156 26.585938 127.820312 26.738281 127.640625 26.9375 C 127.457031 27.140625 127.328125 27.371094 127.246094 27.628906 C 127.167969 27.890625 127.148438 28.15625 127.1875 28.425781 C 127.226562 28.695312 127.320312 28.945312 127.46875 29.171875 C 127.617188 29.398438 127.808594 29.582031 128.039062 29.722656 C 128.269531 29.859375 128.519531 29.945312 128.789062 29.96875 C 129.054688 29.996094 129.316406 29.960938 129.570312 29.871094 C 129.820312 29.777344 130.042969 29.632812 130.230469 29.441406 C 130.421875 29.246094 130.558594 29.019531 130.648438 28.761719 C 130.675781 28.683594 130.730469 28.636719 130.816406 28.621094 L 137.210938 27.8125 C 137.296875 27.800781 137.351562 27.835938 137.382812 27.917969 L 140.121094 35.316406 C 140.148438 35.394531 140.132812 35.460938 140.0625 35.511719 L 136.789062 38.039062 C 136.652344 38.140625 136.578125 38.277344 136.566406 38.449219 L 136.214844 42.863281 C 136.210938 42.945312 136.164062 42.992188 136.082031 42.996094 C 133.945312 43.015625 131.964844 42.464844 130.132812 41.347656 C 130.0625 41.304688 130.03125 41.238281 130.042969 41.152344 C 130.058594 41.0625 130.066406 40.96875 130.066406 40.871094 C 130.066406 40.632812 130.019531 40.402344 129.929688 40.179688 C 129.839844 39.957031 129.710938 39.761719 129.542969 39.589844 C 129.375 39.421875 129.179688 39.289062 128.960938 39.199219 C 128.742188 39.105469 128.511719 39.058594 128.277344 39.058594 C 128.039062 39.058594 127.808594 39.105469 127.589844 39.199219 C 127.371094 39.289062 127.175781 39.421875 127.011719 39.589844 C 126.84375 39.761719 126.710938 39.957031 126.621094 40.179688 C 126.53125 40.402344 126.484375 40.632812 126.484375 40.871094 C 126.484375 41.113281 126.53125 41.34375 126.621094 41.566406 C 126.710938 41.789062 126.84375 41.984375 127.011719 42.15625 C 127.175781 42.324219 127.371094 42.457031 127.589844 42.546875 C 127.808594 42.640625 128.039062 42.6875 128.277344 42.6875 C 128.550781 42.683594 128.808594 42.621094 129.054688 42.5 C 129.128906 42.457031 129.203125 42.457031 129.28125 42.5 C 131.300781 43.757812 133.496094 44.402344 135.867188 44.425781 L 135.964844 44.425781 C 136.050781 44.425781 136.085938 44.46875 136.078125 44.554688 L 135.730469 48.90625 C 135.726562 48.992188 135.679688 49.035156 135.59375 49.035156 L 127.277344 49.035156 C 127.109375 49.035156 126.984375 49.113281 126.90625 49.261719 L 125.308594 52.386719 C 125.273438 52.464844 125.214844 52.484375 125.136719 52.445312 L 123.445312 51.636719 C 123.375 51.597656 123.339844 51.539062 123.335938 51.457031 C 123.328125 51.21875 123.273438 50.988281 123.175781 50.773438 C 123.078125 50.554688 122.941406 50.367188 122.769531 50.203125 C 122.597656 50.039062 122.402344 49.914062 122.183594 49.832031 C 121.964844 49.746094 121.734375 49.707031 121.5 49.714844 C 121.265625 49.71875 121.039062 49.769531 120.824219 49.867188 C 120.609375 49.964844 120.417969 50.097656 120.253906 50.269531 C 120.09375 50.441406 119.96875 50.636719 119.882812 50.859375 C 119.792969 51.082031 119.753906 51.3125 119.757812 51.550781 C 119.757812 51.789062 119.808594 52.019531 119.898438 52.238281 C 119.992188 52.457031 120.121094 52.648438 120.289062 52.816406 C 120.457031 52.984375 120.648438 53.113281 120.867188 53.203125 C 121.085938 53.292969 121.3125 53.339844 121.546875 53.339844 C 121.949219 53.332031 122.308594 53.203125 122.621094 52.949219 C 122.6875 52.898438 122.757812 52.886719 122.835938 52.925781 L 125.65625 54.273438 C 125.804688 54.335938 125.921875 54.296875 126.003906 54.15625 L 127.828125 50.609375 C 127.871094 50.535156 127.929688 50.496094 128.015625 50.5 L 136.785156 50.5 C 136.953125 50.5 137.046875 50.414062 137.0625 50.242188 L 137.949219 39.078125 C 137.957031 38.992188 137.992188 38.921875 138.0625 38.871094 L 141.664062 36.082031 C 141.800781 35.980469 141.835938 35.847656 141.777344 35.683594 Z M 105.867188 43.726562 C 105.867188 43.523438 105.9375 43.351562 106.078125 43.207031 C 106.21875 43.066406 106.386719 42.992188 106.585938 42.992188 C 106.785156 42.992188 106.957031 43.0625 107.097656 43.207031 C 107.238281 43.347656 107.308594 43.519531 107.308594 43.722656 C 107.3125 43.921875 107.242188 44.09375 107.101562 44.238281 C 106.957031 44.378906 106.789062 44.453125 106.589844 44.453125 C 106.390625 44.453125 106.21875 44.382812 106.078125 44.242188 C 105.9375 44.097656 105.867188 43.925781 105.867188 43.726562 Z M 128.964844 28.894531 C 128.765625 28.894531 128.597656 28.824219 128.457031 28.679688 C 128.316406 28.539062 128.246094 28.367188 128.246094 28.164062 C 128.246094 27.960938 128.316406 27.789062 128.457031 27.648438 C 128.597656 27.503906 128.769531 27.433594 128.96875 27.433594 C 129.167969 27.433594 129.335938 27.507812 129.476562 27.648438 C 129.617188 27.792969 129.6875 27.964844 129.6875 28.167969 C 129.6875 28.367188 129.617188 28.539062 129.476562 28.683594 C 129.335938 28.824219 129.164062 28.894531 128.964844 28.894531 Z M 127.554688 40.878906 C 127.554688 40.675781 127.625 40.503906 127.765625 40.363281 C 127.90625 40.21875 128.078125 40.148438 128.277344 40.148438 C 128.476562 40.148438 128.644531 40.21875 128.785156 40.363281 C 128.925781 40.503906 128.996094 40.675781 128.996094 40.878906 C 128.996094 41.078125 128.925781 41.253906 128.785156 41.394531 C 128.644531 41.535156 128.476562 41.609375 128.277344 41.609375 C 128.078125 41.609375 127.90625 41.535156 127.765625 41.394531 C 127.625 41.253906 127.554688 41.078125 127.554688 40.878906 Z M 121.550781 52.242188 C 121.351562 52.242188 121.179688 52.171875 121.039062 52.03125 C 120.898438 51.886719 120.828125 51.714844 120.828125 51.515625 C 120.828125 51.3125 120.898438 51.140625 121.039062 50.996094 C 121.179688 50.855469 121.347656 50.78125 121.546875 50.78125 C 121.746094 50.78125 121.917969 50.851562 122.058594 50.996094 C 122.199219 51.136719 122.269531 51.308594 122.269531 51.511719 C 122.269531 51.714844 122.199219 51.886719 122.058594 52.027344 C 121.917969 52.171875 121.75 52.242188 121.550781 52.242188 Z M 121.550781 52.242188"/></g><path fill="#1D3ED3" d="M 120.6875 31.527344 C 120.648438 31.605469 120.585938 31.644531 120.503906 31.644531 L 119.082031 31.644531 C 119 31.644531 118.9375 31.605469 118.902344 31.527344 C 118.777344 31.285156 118.605469 31.085938 118.390625 30.921875 C 118.175781 30.757812 117.9375 30.648438 117.671875 30.59375 C 117.410156 30.539062 117.148438 30.542969 116.886719 30.609375 C 116.625 30.675781 116.390625 30.792969 116.183594 30.964844 C 115.972656 31.136719 115.8125 31.347656 115.695312 31.59375 C 115.582031 31.839844 115.523438 32.097656 115.523438 32.371094 C 115.523438 32.640625 115.582031 32.902344 115.695312 33.148438 C 115.8125 33.394531 115.972656 33.601562 116.183594 33.773438 C 116.390625 33.945312 116.625 34.066406 116.886719 34.128906 C 117.148438 34.195312 117.410156 34.199219 117.671875 34.148438 C 117.9375 34.09375 118.175781 33.984375 118.390625 33.820312 C 118.605469 33.65625 118.777344 33.453125 118.902344 33.210938 C 118.9375 33.136719 119 33.097656 119.082031 33.09375 L 120.503906 33.09375 C 120.585938 33.097656 120.648438 33.136719 120.6875 33.210938 C 120.8125 33.453125 120.980469 33.65625 121.195312 33.820312 C 121.410156 33.984375 121.652344 34.09375 121.914062 34.148438 C 122.179688 34.203125 122.441406 34.199219 122.703125 34.132812 C 122.964844 34.070312 123.199219 33.949219 123.410156 33.777344 C 123.617188 33.605469 123.78125 33.394531 123.894531 33.148438 C 124.011719 32.902344 124.070312 32.644531 124.070312 32.371094 C 124.070312 32.097656 124.011719 31.835938 123.894531 31.589844 C 123.78125 31.34375 123.617188 31.136719 123.410156 30.960938 C 123.199219 30.789062 122.964844 30.671875 122.703125 30.605469 C 122.441406 30.542969 122.179688 30.535156 121.914062 30.589844 C 121.652344 30.644531 121.410156 30.753906 121.195312 30.917969 C 120.980469 31.082031 120.8125 31.285156 120.6875 31.527344 Z M 122.261719 33.097656 C 122.0625 33.097656 121.890625 33.027344 121.75 32.882812 C 121.609375 32.742188 121.539062 32.570312 121.539062 32.367188 C 121.539062 32.164062 121.609375 31.992188 121.75 31.851562 C 121.890625 31.707031 122.0625 31.636719 122.261719 31.636719 C 122.460938 31.636719 122.628906 31.707031 122.769531 31.851562 C 122.910156 31.992188 122.980469 32.164062 122.980469 32.367188 C 122.980469 32.570312 122.910156 32.742188 122.769531 32.882812 C 122.628906 33.027344 122.460938 33.097656 122.261719 33.097656 Z M 118.027344 32.367188 C 118.027344 32.570312 117.957031 32.742188 117.816406 32.882812 C 117.675781 33.027344 117.507812 33.097656 117.308594 33.101562 C 117.109375 33.101562 116.9375 33.027344 116.796875 32.886719 C 116.65625 32.742188 116.585938 32.570312 116.585938 32.367188 C 116.585938 32.167969 116.65625 31.996094 116.796875 31.851562 C 116.941406 31.710938 117.109375 31.640625 117.308594 31.640625 C 117.507812 31.636719 117.679688 31.707031 117.824219 31.851562 C 117.964844 31.992188 118.035156 32.164062 118.035156 32.367188 Z M 118.027344 32.367188"/><path fill="#1D3ED3" d="M 125.609375 32.367188 C 125.609375 32.785156 125.738281 33.15625 125.992188 33.484375 C 126.246094 33.8125 126.570312 34.027344 126.972656 34.128906 C 127.371094 34.226562 127.757812 34.191406 128.136719 34.019531 C 128.511719 33.847656 128.792969 33.578125 128.984375 33.210938 C 129.023438 33.132812 129.082031 33.09375 129.167969 33.089844 L 133.472656 33.089844 C 133.5625 33.089844 133.601562 33.132812 133.601562 33.21875 L 133.601562 35.78125 C 133.601562 35.867188 133.558594 35.910156 133.472656 35.910156 L 121.722656 35.910156 C 121.652344 35.910156 121.59375 35.933594 121.542969 35.984375 C 121.492188 36.035156 121.46875 36.097656 121.46875 36.167969 L 121.46875 46.335938 C 121.46875 46.40625 121.492188 46.46875 121.542969 46.519531 C 121.59375 46.570312 121.652344 46.59375 121.722656 46.59375 L 126.476562 46.59375 C 126.558594 46.59375 126.617188 46.632812 126.652344 46.710938 C 126.761719 46.960938 126.921875 47.171875 127.128906 47.347656 C 127.335938 47.523438 127.566406 47.644531 127.828125 47.714844 C 128.089844 47.785156 128.351562 47.792969 128.617188 47.742188 C 128.878906 47.691406 129.121094 47.585938 129.339844 47.425781 C 129.558594 47.265625 129.730469 47.066406 129.859375 46.824219 C 129.988281 46.585938 130.058594 46.332031 130.074219 46.058594 C 130.089844 45.785156 130.046875 45.523438 129.945312 45.269531 C 129.839844 45.019531 129.691406 44.800781 129.492188 44.617188 C 129.292969 44.433594 129.066406 44.300781 128.808594 44.222656 C 128.550781 44.140625 128.289062 44.121094 128.019531 44.160156 C 127.753906 44.199219 127.507812 44.296875 127.285156 44.449219 C 127.0625 44.601562 126.882812 44.792969 126.742188 45.027344 C 126.703125 45.097656 126.640625 45.136719 126.558594 45.136719 L 123.023438 45.136719 C 122.9375 45.136719 122.894531 45.09375 122.898438 45.007812 L 122.898438 37.484375 C 122.898438 37.398438 122.941406 37.355469 123.023438 37.355469 L 134.773438 37.355469 C 134.84375 37.355469 134.90625 37.332031 134.953125 37.28125 C 135.003906 37.230469 135.027344 37.167969 135.027344 37.097656 L 135.027344 31.894531 C 135.027344 31.824219 135.003906 31.761719 134.953125 31.710938 C 134.90625 31.664062 134.84375 31.636719 134.773438 31.636719 L 129.167969 31.636719 C 129.082031 31.636719 129.023438 31.597656 128.984375 31.519531 C 128.792969 31.148438 128.511719 30.878906 128.136719 30.707031 C 127.757812 30.539062 127.371094 30.5 126.972656 30.601562 C 126.570312 30.699219 126.246094 30.914062 125.992188 31.242188 C 125.738281 31.570312 125.609375 31.945312 125.609375 32.363281 Z M 127.550781 45.960938 C 127.550781 45.761719 127.621094 45.589844 127.761719 45.445312 C 127.902344 45.304688 128.070312 45.234375 128.269531 45.234375 C 128.46875 45.234375 128.640625 45.304688 128.78125 45.445312 C 128.921875 45.589844 128.992188 45.761719 128.992188 45.960938 C 128.992188 46.164062 128.921875 46.335938 128.78125 46.476562 C 128.640625 46.621094 128.46875 46.691406 128.269531 46.691406 C 128.074219 46.691406 127.90625 46.617188 127.765625 46.476562 C 127.625 46.332031 127.554688 46.164062 127.554688 45.960938 Z M 127.394531 31.644531 C 127.59375 31.640625 127.769531 31.707031 127.914062 31.847656 C 128.058594 31.988281 128.132812 32.160156 128.136719 32.363281 C 128.140625 32.566406 128.070312 32.742188 127.929688 32.886719 C 127.789062 33.03125 127.621094 33.105469 127.417969 33.105469 C 127.21875 33.105469 127.046875 33.035156 126.90625 32.890625 C 126.761719 32.746094 126.695312 32.570312 126.695312 32.367188 C 126.695312 32.167969 126.765625 32 126.902344 31.859375 C 127.039062 31.714844 127.203125 31.644531 127.398438 31.640625 Z M 127.394531 31.644531"/><path fill="#1D3ED3" d="M 122.625 28.167969 C 122.625 28.382812 122.660156 28.59375 122.734375 28.792969 C 122.804688 28.996094 122.910156 29.179688 123.050781 29.34375 C 123.1875 29.507812 123.347656 29.644531 123.535156 29.75 C 123.71875 29.855469 123.917969 29.925781 124.128906 29.960938 C 124.335938 29.992188 124.546875 29.992188 124.753906 29.949219 C 124.964844 29.910156 125.160156 29.832031 125.339844 29.722656 C 125.523438 29.609375 125.679688 29.46875 125.8125 29.300781 C 125.945312 29.132812 126.046875 28.945312 126.113281 28.742188 C 126.179688 28.539062 126.210938 28.328125 126.203125 28.113281 C 126.199219 27.898438 126.15625 27.6875 126.074219 27.488281 C 125.996094 27.289062 125.882812 27.109375 125.742188 26.949219 C 125.597656 26.792969 125.433594 26.660156 125.242188 26.5625 C 125.167969 26.523438 125.128906 26.460938 125.125 26.375 L 125.125 24.78125 C 125.128906 24.695312 125.167969 24.632812 125.242188 24.597656 C 125.480469 24.46875 125.679688 24.296875 125.84375 24.082031 C 126.003906 23.863281 126.113281 23.621094 126.167969 23.355469 C 126.21875 23.085938 126.214844 22.820312 126.152344 22.558594 C 126.085938 22.292969 125.96875 22.054688 125.800781 21.84375 C 125.628906 21.632812 125.421875 21.46875 125.179688 21.351562 C 124.9375 21.234375 124.679688 21.175781 124.410156 21.175781 C 124.144531 21.175781 123.886719 21.234375 123.644531 21.351562 C 123.402344 21.46875 123.195312 21.632812 123.023438 21.84375 C 122.855469 22.054688 122.738281 22.292969 122.671875 22.558594 C 122.609375 22.820312 122.601562 23.085938 122.65625 23.355469 C 122.710938 23.621094 122.820312 23.863281 122.980469 24.082031 C 123.140625 24.296875 123.34375 24.46875 123.578125 24.597656 C 123.65625 24.632812 123.695312 24.695312 123.695312 24.78125 L 123.695312 26.375 C 123.695312 26.460938 123.65625 26.523438 123.578125 26.5625 C 123.285156 26.71875 123.054688 26.941406 122.882812 27.230469 C 122.710938 27.519531 122.625 27.832031 122.625 28.167969 Z M 124.414062 28.894531 C 124.214844 28.894531 124.046875 28.824219 123.90625 28.679688 C 123.765625 28.539062 123.695312 28.367188 123.695312 28.164062 C 123.695312 27.960938 123.765625 27.789062 123.90625 27.648438 C 124.046875 27.503906 124.21875 27.433594 124.417969 27.433594 C 124.617188 27.433594 124.785156 27.507812 124.925781 27.648438 C 125.066406 27.792969 125.136719 27.964844 125.136719 28.167969 C 125.132812 28.367188 125.0625 28.539062 124.921875 28.683594 C 124.78125 28.824219 124.613281 28.894531 124.414062 28.894531 Z M 124.414062 22.265625 C 124.613281 22.265625 124.785156 22.335938 124.925781 22.476562 C 125.066406 22.621094 125.136719 22.792969 125.136719 22.992188 C 125.136719 23.195312 125.066406 23.367188 124.925781 23.511719 C 124.785156 23.652344 124.613281 23.722656 124.414062 23.722656 C 124.214844 23.722656 124.046875 23.652344 123.90625 23.511719 C 123.765625 23.367188 123.695312 23.195312 123.695312 22.992188 C 123.695312 22.792969 123.765625 22.621094 123.90625 22.480469 C 124.046875 22.335938 124.214844 22.265625 124.414062 22.265625 Z M 124.414062 22.265625"/><path fill="#1D3ED3" d="M 117.316406 47.496094 C 116.84375 47.5 116.4375 47.664062 116.09375 47.996094 C 116.035156 48.050781 115.96875 48.0625 115.894531 48.027344 L 110.976562 45.574219 C 110.898438 45.535156 110.878906 45.476562 110.910156 45.398438 L 113.820312 38.003906 C 113.886719 37.84375 113.894531 37.679688 113.851562 37.511719 L 111.5 28.351562 C 111.480469 28.269531 111.472656 28.183594 111.472656 28.097656 L 111.472656 22.894531 C 111.472656 22.808594 111.511719 22.746094 111.585938 22.707031 C 111.828125 22.582031 112.027344 22.410156 112.1875 22.191406 C 112.351562 21.972656 112.460938 21.730469 112.511719 21.464844 C 112.566406 21.195312 112.5625 20.929688 112.496094 20.664062 C 112.433594 20.398438 112.316406 20.160156 112.144531 19.949219 C 111.976562 19.738281 111.769531 19.574219 111.527344 19.457031 C 111.28125 19.339844 111.027344 19.28125 110.757812 19.28125 C 110.488281 19.28125 110.230469 19.339844 109.988281 19.457031 C 109.742188 19.574219 109.535156 19.738281 109.367188 19.949219 C 109.195312 20.160156 109.078125 20.398438 109.015625 20.664062 C 108.949219 20.929688 108.945312 21.195312 109 21.464844 C 109.054688 21.730469 109.160156 21.972656 109.324219 22.191406 C 109.484375 22.410156 109.6875 22.582031 109.925781 22.707031 C 110 22.746094 110.039062 22.808594 110.039062 22.894531 L 110.039062 28.152344 C 110.039062 28.324219 110.0625 28.496094 110.105469 28.660156 L 112.382812 37.542969 C 112.402344 37.625 112.398438 37.707031 112.367188 37.789062 L 109.136719 45.984375 C 109.074219 46.144531 109.121094 46.261719 109.273438 46.339844 L 115.425781 49.402344 C 115.5 49.445312 115.542969 49.507812 115.554688 49.59375 C 115.589844 49.820312 115.667969 50.035156 115.785156 50.234375 C 115.902344 50.433594 116.050781 50.605469 116.234375 50.746094 C 116.414062 50.886719 116.617188 50.988281 116.835938 51.050781 C 117.058594 51.113281 117.28125 51.132812 117.507812 51.109375 C 117.738281 51.085938 117.953125 51.019531 118.15625 50.910156 C 118.359375 50.800781 118.535156 50.660156 118.683594 50.480469 C 118.832031 50.304688 118.941406 50.105469 119.015625 49.886719 C 119.089844 49.667969 119.117188 49.441406 119.105469 49.210938 C 119.09375 48.976562 119.039062 48.757812 118.941406 48.546875 C 118.847656 48.335938 118.714844 48.152344 118.546875 47.992188 C 118.382812 47.832031 118.191406 47.710938 117.976562 47.625 C 117.765625 47.539062 117.542969 47.496094 117.316406 47.496094 Z M 110.757812 20.386719 C 110.957031 20.386719 111.125 20.457031 111.265625 20.597656 C 111.410156 20.742188 111.480469 20.914062 111.480469 21.113281 C 111.480469 21.316406 111.410156 21.488281 111.269531 21.632812 C 111.128906 21.773438 110.960938 21.84375 110.761719 21.847656 C 110.5625 21.847656 110.390625 21.773438 110.25 21.632812 C 110.109375 21.488281 110.039062 21.316406 110.039062 21.117188 C 110.039062 20.914062 110.105469 20.742188 110.246094 20.601562 C 110.386719 20.457031 110.558594 20.386719 110.757812 20.386719 Z M 117.316406 50.042969 C 117.117188 50.042969 116.949219 49.972656 116.808594 49.828125 C 116.664062 49.6875 116.59375 49.515625 116.59375 49.3125 C 116.59375 49.113281 116.664062 48.9375 116.804688 48.796875 C 116.945312 48.652344 117.113281 48.582031 117.3125 48.582031 C 117.511719 48.582031 117.683594 48.652344 117.824219 48.792969 C 117.964844 48.9375 118.035156 49.109375 118.035156 49.3125 C 118.035156 49.511719 117.964844 49.683594 117.824219 49.828125 C 117.6875 49.96875 117.515625 50.039062 117.316406 50.042969 Z M 117.316406 50.042969"/><path fill="#1D3ED3" d="M 114.59375 26.375 C 114.59375 26.460938 114.554688 26.523438 114.480469 26.5625 C 114.242188 26.6875 114.039062 26.859375 113.878906 27.078125 C 113.714844 27.296875 113.609375 27.539062 113.554688 27.804688 C 113.5 28.074219 113.503906 28.339844 113.570312 28.605469 C 113.632812 28.871094 113.75 29.109375 113.921875 29.320312 C 114.089844 29.53125 114.296875 29.695312 114.542969 29.8125 C 114.785156 29.929688 115.042969 29.988281 115.3125 29.988281 C 115.582031 29.988281 115.835938 29.929688 116.078125 29.8125 C 116.324219 29.695312 116.53125 29.53125 116.699219 29.320312 C 116.871094 29.109375 116.988281 28.871094 117.050781 28.605469 C 117.117188 28.339844 117.121094 28.074219 117.066406 27.804688 C 117.015625 27.539062 116.90625 27.296875 116.742188 27.078125 C 116.582031 26.859375 116.382812 26.6875 116.140625 26.5625 C 116.066406 26.523438 116.027344 26.460938 116.027344 26.375 L 116.027344 20.171875 C 116.027344 20.085938 116.058594 20.015625 116.117188 19.957031 L 118.710938 17.457031 C 118.777344 17.398438 118.847656 17.382812 118.929688 17.414062 C 119.167969 17.496094 119.417969 17.523438 119.667969 17.5 C 119.921875 17.476562 120.160156 17.402344 120.382812 17.273438 C 120.605469 17.148438 120.789062 16.980469 120.941406 16.773438 C 121.09375 16.566406 121.195312 16.339844 121.25 16.085938 C 121.304688 15.835938 121.308594 15.582031 121.257812 15.332031 C 121.207031 15.078125 121.105469 14.847656 120.957031 14.636719 C 120.808594 14.429688 120.625 14.257812 120.40625 14.128906 C 120.1875 14 119.949219 13.921875 119.695312 13.894531 C 119.445312 13.863281 119.195312 13.890625 118.953125 13.96875 C 118.710938 14.046875 118.496094 14.171875 118.308594 14.34375 C 118.117188 14.515625 117.972656 14.722656 117.867188 14.957031 C 117.761719 15.191406 117.710938 15.4375 117.710938 15.695312 C 117.710938 15.867188 117.738281 16.03125 117.785156 16.195312 C 117.8125 16.273438 117.792969 16.34375 117.734375 16.402344 L 114.777344 19.246094 C 114.652344 19.363281 114.589844 19.507812 114.589844 19.679688 Z M 119.488281 14.96875 C 119.6875 14.96875 119.859375 15.039062 120 15.179688 C 120.140625 15.324219 120.210938 15.496094 120.210938 15.695312 C 120.210938 15.898438 120.140625 16.070312 120 16.214844 C 119.859375 16.355469 119.691406 16.429688 119.492188 16.429688 C 119.289062 16.425781 119.121094 16.355469 118.980469 16.210938 C 118.839844 16.070312 118.769531 15.898438 118.769531 15.695312 C 118.769531 15.496094 118.839844 15.324219 118.980469 15.179688 C 119.121094 15.039062 119.289062 14.96875 119.488281 14.96875 Z M 115.3125 28.894531 C 115.113281 28.894531 114.941406 28.824219 114.800781 28.683594 C 114.660156 28.539062 114.585938 28.367188 114.585938 28.164062 C 114.585938 27.964844 114.65625 27.792969 114.796875 27.648438 C 114.9375 27.507812 115.109375 27.433594 115.308594 27.433594 C 115.507812 27.433594 115.679688 27.507812 115.820312 27.648438 C 115.960938 27.792969 116.03125 27.964844 116.027344 28.167969 C 116.027344 28.367188 115.957031 28.539062 115.820312 28.683594 C 115.679688 28.824219 115.507812 28.894531 115.3125 28.894531 Z M 115.3125 28.894531"/><path fill="#1D3ED3" d="M 132.355469 23.660156 C 132.351562 23.886719 132.394531 24.105469 132.472656 24.3125 C 132.550781 24.523438 132.664062 24.710938 132.8125 24.878906 C 132.960938 25.046875 133.132812 25.179688 133.332031 25.28125 C 133.527344 25.382812 133.738281 25.445312 133.957031 25.46875 C 134.179688 25.492188 134.394531 25.476562 134.609375 25.417969 C 134.824219 25.359375 135.019531 25.265625 135.199219 25.132812 C 135.378906 25 135.527344 24.839844 135.648438 24.648438 C 135.769531 24.460938 135.851562 24.257812 135.898438 24.039062 C 135.941406 23.816406 135.949219 23.597656 135.914062 23.375 C 135.875 23.152344 135.804688 22.945312 135.691406 22.753906 C 135.578125 22.558594 135.4375 22.390625 135.265625 22.25 C 135.089844 22.109375 134.898438 22.007812 134.6875 21.9375 C 134.605469 21.914062 134.542969 21.863281 134.507812 21.785156 L 133.3125 19.242188 C 133.242188 19.085938 133.121094 19.007812 132.949219 19.007812 L 129.84375 19.007812 C 129.757812 19.003906 129.699219 18.964844 129.660156 18.890625 C 129.535156 18.648438 129.363281 18.445312 129.148438 18.28125 C 128.933594 18.117188 128.695312 18.011719 128.433594 17.957031 C 128.167969 17.902344 127.90625 17.90625 127.644531 17.972656 C 127.382812 18.035156 127.148438 18.15625 126.941406 18.328125 C 126.734375 18.5 126.570312 18.707031 126.457031 18.953125 C 126.339844 19.199219 126.28125 19.460938 126.28125 19.730469 C 126.28125 20.003906 126.339844 20.261719 126.457031 20.507812 C 126.570312 20.753906 126.734375 20.964844 126.941406 21.136719 C 127.148438 21.308594 127.382812 21.425781 127.644531 21.492188 C 127.90625 21.558594 128.167969 21.5625 128.433594 21.507812 C 128.695312 21.453125 128.933594 21.34375 129.148438 21.179688 C 129.363281 21.019531 129.535156 20.816406 129.660156 20.574219 C 129.695312 20.496094 129.757812 20.457031 129.84375 20.457031 L 132.175781 20.457031 C 132.261719 20.457031 132.320312 20.496094 132.355469 20.570312 L 133.070312 22.070312 C 133.105469 22.148438 133.089844 22.214844 133.023438 22.265625 C 132.582031 22.625 132.359375 23.089844 132.355469 23.660156 Z M 128.796875 19.730469 C 128.796875 19.933594 128.726562 20.105469 128.585938 20.25 C 128.445312 20.390625 128.273438 20.460938 128.074219 20.460938 C 127.875 20.460938 127.707031 20.390625 127.566406 20.246094 C 127.425781 20.101562 127.355469 19.929688 127.355469 19.726562 C 127.355469 19.527344 127.429688 19.355469 127.570312 19.210938 C 127.710938 19.070312 127.882812 19 128.082031 19.003906 C 128.28125 19.003906 128.449219 19.074219 128.585938 19.21875 C 128.726562 19.359375 128.796875 19.527344 128.796875 19.730469 Z M 134.144531 22.933594 C 134.34375 22.933594 134.511719 23.007812 134.65625 23.148438 C 134.796875 23.292969 134.867188 23.464844 134.867188 23.664062 C 134.867188 23.867188 134.796875 24.039062 134.65625 24.179688 C 134.511719 24.324219 134.34375 24.394531 134.144531 24.394531 C 133.945312 24.394531 133.777344 24.324219 133.636719 24.179688 C 133.496094 24.039062 133.425781 23.867188 133.425781 23.664062 C 133.421875 23.460938 133.492188 23.289062 133.632812 23.144531 C 133.773438 23.003906 133.945312 22.929688 134.144531 22.933594 Z M 134.144531 22.933594"/></svg>